<svg xmlns="http://www.w3.org/2000/svg" xmlns:xlink="http://www.w3.org/1999/xlink" width="604" height="260pt" viewBox="0 0 453 260"><g id="graph1" class="graph" transform="scale(1 1) rotate(0) translate(4 256)"><title>g</title><polygon fill="#fff" stroke="#fff" points="-4 5 -4 -256 450 -256 450 5 -4 5"/><g id="node2" class="node"><title>A</title><ellipse cx="183" cy="-234" fill="none" stroke="#000" rx="53.838" ry="18"/><text x="183" y="-229.4" font-family="Times New Roman,serif" font-size="14" text-anchor="middle">xsl:template</text></g><g id="node4" class="node"><title>B</title><ellipse cx="183" cy="-180" fill="none" stroke="#000" rx="53.838" ry="18"/><text x="183" y="-175.4" font-family="Times New Roman,serif" font-size="14" text-anchor="middle">xsl:for-each</text></g><g id="edge25" class="edge"><title>A-&gt;B</title><path fill="none" stroke="#000" d="M176.596,-216.019C176.396,-213.495 176.282,-210.853 176.256,-208.195"/><polygon fill="#000" stroke="#000" points="179.758 -208.196 176.588 -198.087 172.761 -207.966 179.758 -208.196"/></g><g id="node8" class="node"><title>D</title><ellipse cx="68" cy="-72" fill="none" stroke="#000" rx="67.924" ry="18"/><text x="68" y="-67.4" font-family="Times New Roman,serif" font-size="14" text-anchor="middle">child::employee</text></g><g id="edge27" class="edge"><title>A-&gt;D</title><path fill="none" stroke="red" d="M225.802,-222.918C292.503,-203.691 408.973,-161.075 362,-108 354.754,-99.8129 227.358,-86.6135 142.665,-78.6761"/><polygon fill="red" stroke="red" points="142.84 -75.177 132.559 -77.735 142.191 -82.147 142.84 -75.177"/></g><g id="edge41" class="edge"><title>B-&gt;A</title><path fill="none" stroke="red" d="M189.412,-198.087C189.61,-200.614 189.721,-203.258 189.745,-205.916"/><polygon fill="red" stroke="red" points="186.244 -205.906 189.404 -216.019 193.24 -206.143 186.244 -205.906"/></g><g id="node6" class="node"><title>C</title><ellipse cx="68" cy="-126" fill="none" stroke="#000" rx="27" ry="18"/><text x="68" y="-121.4" font-family="Times New Roman,serif" font-size="14" text-anchor="middle">sort</text></g><g id="edge19" class="edge"><title>B-&gt;C</title><path fill="none" stroke="#000" d="M150.591,-165.549C136.258,-159.076 119.232,-151.276 104,-144 102.25,-143.164 100.457,-142.298 98.6498,-141.418"/><polygon fill="#000" stroke="#000" points="100.157 -138.259 89.64 -136.978 97.063 -144.538 100.157 -138.259"/></g><g id="node11" class="node"><title>E</title><ellipse cx="183" cy="-126" fill="none" stroke="#000" rx="69.937" ry="18"/><text x="183" y="-121.4" font-family="Times New Roman,serif" font-size="14" text-anchor="middle">attribute::empNr</text></g><g id="edge21" class="edge"><title>B-&gt;E</title><path fill="none" stroke="#000" d="M183,-161.718C183,-159.343 183,-156.867 183,-154.375"/><polygon fill="#000" stroke="#000" points="186.5 -154.263 183 -144.263 179.5 -154.263 186.5 -154.263"/></g><g id="node13" class="node"><title>CC</title><ellipse cx="312" cy="-126" fill="none" stroke="#000" rx="40.92" ry="18"/><text x="312" y="-121.4" font-family="Times New Roman,serif" font-size="14" text-anchor="middle">copy-of</text></g><g id="edge23" class="edge"><title>B-&gt;CC</title><path fill="none" stroke="#000" d="M212.81,-164.958C229.874,-157.464 251.46,-148.429 270.178,-140.948"/><polygon fill="#000" stroke="#000" points="271.655 -144.128 279.665 -137.194 269.079 -137.619 271.655 -144.128"/></g><g id="edge6" class="edge"><title>C-&gt;D</title><path fill="none" stroke="#000" d="M61.6208,-108.318C61.4116,-105.788 61.291,-103.134 61.2588,-100.461"/><polygon fill="#000" stroke="#000" points="64.763 -100.381 61.573 -90.277 57.766 -100.164 64.763 -100.381"/></g><g id="edge31" class="edge"><title>C-&gt;E</title><path fill="none" stroke="red" d="M95.4023,-126C97.8564,-126 100.31,-126 102.765,-126"/><polygon fill="red" stroke="red" points="102.853 -129.5 112.853 -126 102.853 -122.5 102.853 -129.5"/></g><g id="node17" class="node"><title>G</title><ellipse cx="184" cy="-18" fill="none" stroke="#000" rx="27" ry="18"/><text x="184" y="-13.4" font-family="Times New Roman,serif" font-size="14" text-anchor="middle">.</text></g><g id="edge33" class="edge"><title>C-&gt;G</title><path fill="none" stroke="red" d="M89.6166,-114.973C94.3357,-112.627 99.3187,-110.196 104,-108 122.017,-99.5474 130.358,-103.478 145,-90 158.172,-77.8749 167.823,-60.2549 174.229,-45.4808"/><polygon fill="red" stroke="red" points="177.636 -46.392 178.149 -35.81 171.149 -43.763 177.636 -46.392"/></g><g id="edge29" class="edge"><title>D-&gt;C</title><path fill="none" stroke="red" d="M74.4266,-90.2772C74.6219,-92.826 74.7288,-95.4909 74.7471,-98.1668"/><polygon fill="red" stroke="red" points="71.244 -98.198 74.379 -108.318 78.239 -98.452 71.244 -98.198"/></g><g id="edge39" class="edge"><title>CC-&gt;B</title><path fill="none" stroke="red" d="M284.947,-139.827C268.975,-146.889 248.414,-155.544 229.909,-163.009"/><polygon fill="red" stroke="red" points="228.44 -159.827 220.454 -166.79 231.039 -166.327 228.44 -159.827"/></g><g id="node15" class="node"><title>F</title><ellipse cx="312" cy="-72" fill="none" stroke="#000" rx="27" ry="18"/><text x="312" y="-67.4" font-family="Times New Roman,serif" font-size="14" text-anchor="middle">path</text></g><g id="edge17" class="edge"><title>CC-&gt;F</title><path fill="none" stroke="#000" d="M312,-107.718C312,-105.343 312,-102.867 312,-100.375"/><polygon fill="#000" stroke="#000" points="315.5 -100.263 312 -90.263 308.5 -100.263 315.5 -100.263"/></g><g id="edge13" class="edge"><title>F-&gt;G</title><path fill="none" stroke="#000" d="M287.927,-63.2629C269.222,-56.3103 242.725,-46.1027 220,-36 218.228,-35.2123 216.417,-34.3839 214.597,-33.5328"/><polygon fill="#000" stroke="#000" points="216.078 -30.361 205.55 -29.172 213.039 -36.667 216.078 -30.361"/></g><g id="node19" class="node"><title>H</title><ellipse cx="337" cy="-18" fill="none" stroke="#000" rx="108.172" ry="18"/><text x="337" y="-13.4" font-family="Times New Roman,serif" font-size="14" text-anchor="middle">descendant-or-self::node()</text></g><g id="edge15" class="edge"><title>F-&gt;H</title><path fill="none" stroke="#000" d="M313.921,-54.0188C315.027,-51.1348 316.318,-48.0957 317.724,-45.0556"/><polygon fill="#000" stroke="#000" points="320.867 -46.596 322.215 -36.087 314.608 -43.462 320.867 -46.596"/></g><g id="edge35" class="edge"><title>G-&gt;H</title><path fill="none" stroke="red" d="M211.193,-18C213.681,-18 216.169,-18 218.657,-18"/><polygon fill="red" stroke="red" points="218.885 -21.5 228.885 -18 218.885 -14.5 218.885 -21.5"/></g><g id="edge37" class="edge"><title>H-&gt;F</title><path fill="none" stroke="red" d="M334.97,-36.2631C333.612,-39.7805 331.982,-43.5197 330.21,-47.2037"/><polygon fill="red" stroke="red" points="327.097 -45.604 325.582 -56.09 333.305 -48.838 327.097 -45.604"/></g></g></svg>