<svg xmlns="http://www.w3.org/2000/svg" xmlns:xlink="http://www.w3.org/1999/xlink" width="382pt" height="368pt" viewBox="0 0 382 368"><g id="graph1" class="graph" transform="scale(1 1) rotate(0) translate(4 364)"><title>g</title><polygon fill="#fff" stroke="#fff" points="-4 5 -4 -364 379 -364 379 5 -4 5"/><g id="node2" class="node"><title>A</title><ellipse cx="124" cy="-342" fill="none" stroke="#000" rx="53.838" ry="18"/><text x="124" y="-337.4" font-family="Times New Roman,serif" font-size="14" text-anchor="middle">xsl:template</text></g><g id="node4" class="node"><title>B</title><ellipse cx="124" cy="-288" fill="none" stroke="#000" rx="53.838" ry="18"/><text x="124" y="-283.4" font-family="Times New Roman,serif" font-size="14" text-anchor="middle">xsl:for-each</text></g><g id="edge37" class="edge"><title>A-&gt;B</title><path fill="none" stroke="#000" d="M117.596,-324.019C117.396,-321.495 117.282,-318.853 117.256,-316.195"/><polygon fill="#000" stroke="#000" points="120.758 -316.196 117.588 -306.087 113.761 -315.966 120.758 -316.196"/></g><g id="node6" class="node"><title>D</title><ellipse cx="68" cy="-234" fill="none" stroke="#000" rx="67.924" ry="18"/><text x="68" y="-229.4" font-family="Times New Roman,serif" font-size="14" text-anchor="middle">child::employee</text></g><g id="edge39" class="edge"><title>A-&gt;D</title><path fill="none" stroke="red" d="M161.277,-328.948C171.41,-323.492 181.183,-316.024 187,-306 195.031,-292.161 196.536,-282.848 187,-270 183.059,-264.69 155.62,-256.214 128.084,-248.82"/><polygon fill="red" stroke="red" points="128.941 -245.426 118.379 -246.257 127.154 -252.194 128.941 -245.426"/></g><g id="edge55" class="edge"><title>B-&gt;A</title><path fill="none" stroke="red" d="M130.412,-306.087C130.61,-308.614 130.721,-311.258 130.745,-313.916"/><polygon fill="red" stroke="red" points="127.244 -313.906 130.404 -324.019 134.24 -314.143 127.244 -313.906"/></g><g id="edge33" class="edge"><title>B-&gt;D</title><path fill="none" stroke="#000" d="M106.281,-270.914C102.276,-267.052 97.9444,-262.875 93.685,-258.768"/><polygon fill="#000" stroke="#000" points="95.809 -255.954 86.182 -251.532 90.951 -260.993 95.809 -255.954"/></g><g id="node8" class="node"><title>E</title><ellipse cx="181" cy="-234" fill="none" stroke="#000" rx="27" ry="18"/><text x="181" y="-229.4" font-family="Times New Roman,serif" font-size="14" text-anchor="middle">if</text></g><g id="edge35" class="edge"><title>B-&gt;E</title><path fill="none" stroke="#000" d="M136.285,-270.318C141.503,-264.955 147.709,-259.032 153.844,-253.553"/><polygon fill="#000" stroke="#000" points="156.229 -256.118 161.498 -246.926 151.647 -250.826 156.229 -256.118"/></g><g id="node16" class="node"><title>I</title><ellipse cx="34" cy="-72" fill="none" stroke="#000" rx="29.016" ry="18"/><text x="34" y="-67.4" font-family="Times New Roman,serif" font-size="14" text-anchor="middle">last()</text></g><g id="edge41" class="edge"><title>D-&gt;I</title><path fill="none" stroke="red" d="M64.1659,-215.731C58.2422,-187.507 46.8234,-133.1 39.86,-99.921"/><polygon fill="red" stroke="red" points="43.248 -99.022 37.768 -89.955 36.397 -100.46 43.248 -99.022"/></g><g id="node27" class="node"><title>K</title><ellipse cx="84" cy="-18" fill="none" stroke="#000" rx="63.9" ry="18"/><text x="84" y="-13.4" font-family="Times New Roman,serif" font-size="14" text-anchor="middle">child::surname</text></g><g id="edge43" class="edge"><title>D-&gt;K</title><path fill="none" stroke="red" d="M69.3366,-215.955C72.1249,-178.314 78.5788,-91.1867 81.9167,-46.1246"/><polygon fill="red" stroke="red" points="85.407 -46.376 82.656 -36.145 78.427 -45.859 85.407 -46.376"/></g><g id="edge53" class="edge"><title>E-&gt;B</title><path fill="none" stroke="red" d="M169.601,-250.767C165.328,-255.203 160.32,-260.071 155.198,-264.783"/><polygon fill="red" stroke="red" points="152.804 -262.228 147.685 -271.505 157.471 -267.445 152.804 -262.228"/></g><g id="node10" class="node"><title>F</title><ellipse cx="167" cy="-180" fill="none" stroke="#000" rx="27" ry="18"/><text x="167" y="-175.4" font-family="Times New Roman,serif" font-size="14" text-anchor="middle">test</text></g><g id="edge29" class="edge"><title>E-&gt;F</title><path fill="none" stroke="#000" d="M176.338,-216.019C175.661,-213.405 174.95,-210.664 174.236,-207.91"/><polygon fill="#000" stroke="#000" points="177.587 -206.888 171.689 -198.087 170.811 -208.645 177.587 -206.888"/></g><g id="node21" class="node"><title>N</title><ellipse cx="255" cy="-180" fill="none" stroke="#000" rx="27" ry="18"/><text x="255" y="-175.4" font-family="Times New Roman,serif" font-size="14" text-anchor="middle">then</text></g><g id="edge31" class="edge"><title>E-&gt;N</title><path fill="none" stroke="#000" d="M195.852,-218.67C204.312,-211.966 215.069,-204.073 225.133,-197.171"/><polygon fill="#000" stroke="#000" points="227.364 -199.89 233.724 -191.417 223.468 -194.074 227.364 -199.89"/></g><g id="node12" class="node"><title>G</title><ellipse cx="159" cy="-126" fill="none" stroke="#000" rx="34.212" ry="18"/><text x="159" y="-121.4" font-family="Times New Roman,serif" font-size="14" text-anchor="middle">equals</text></g><g id="edge14" class="edge"><title>F-&gt;G</title><path fill="none" stroke="#000" d="M164.336,-162.019C163.962,-159.495 163.571,-156.853 163.177,-154.195"/><polygon fill="#000" stroke="#000" points="166.607 -153.466 161.68 -144.087 159.683 -154.492 166.607 -153.466"/></g><g id="node14" class="node"><title>H</title><ellipse cx="166" cy="-72" fill="none" stroke="#000" rx="46.957" ry="18"/><text x="166" y="-67.4" font-family="Times New Roman,serif" font-size="14" text-anchor="middle">position()</text></g><g id="edge10" class="edge"><title>G-&gt;H</title><path fill="none" stroke="#000" d="M161.331,-108.019C161.658,-105.495 162.001,-102.853 162.345,-100.195"/><polygon fill="#000" stroke="#000" points="165.841 -100.454 163.655 -90.087 158.899 -99.554 165.841 -100.454"/></g><g id="edge12" class="edge"><title>G-&gt;I</title><path fill="none" stroke="#000" d="M132.491,-114.548C113.436,-106.316 87.6098,-95.1594 67.1845,-86.3357"/><polygon fill="#000" stroke="#000" points="68.503 -83.093 57.935 -82.34 65.727 -89.519 68.503 -83.093"/></g><g id="edge51" class="edge"><title>N-&gt;E</title><path fill="none" stroke="red" d="M240.148,-195.33C231.7,-202.024 220.963,-209.904 210.911,-216.798"/><polygon fill="red" stroke="red" points="208.689 -214.074 202.329 -222.548 212.585 -219.889 208.689 -214.074"/></g><g id="node23" class="node"><title>M</title><ellipse cx="264" cy="-126" fill="none" stroke="#000" rx="53.164" ry="18"/><text x="264" y="-121.4" font-family="Times New Roman,serif" font-size="14" text-anchor="middle">xsl:value-of</text></g><g id="edge27" class="edge"><title>N-&gt;M</title><path fill="none" stroke="#000" d="M251.593,-162.019C251.826,-159.35 252.178,-156.547 252.63,-153.735"/><polygon fill="#000" stroke="#000" points="256.103 -154.216 254.665 -143.719 249.244 -152.822 256.103 -154.216"/></g><g id="edge49" class="edge"><title>M-&gt;N</title><path fill="none" stroke="red" d="M267.38,-144.282C267.126,-147.106 266.739,-150.073 266.243,-153.04"/><polygon fill="red" stroke="red" points="262.8 -152.409 264.176 -162.914 269.651 -153.844 262.8 -152.409"/></g><g id="node25" class="node"><title>J</title><ellipse cx="264" cy="-72" fill="none" stroke="#000" rx="27" ry="18"/><text x="264" y="-67.4" font-family="Times New Roman,serif" font-size="14" text-anchor="middle">path</text></g><g id="edge25" class="edge"><title>M-&gt;J</title><path fill="none" stroke="#000" d="M264,-107.718C264,-105.343 264,-102.867 264,-100.375"/><polygon fill="#000" stroke="#000" points="267.5 -100.263 264 -90.263 260.5 -100.263 267.5 -100.263"/></g><g id="edge21" class="edge"><title>J-&gt;K</title><path fill="none" stroke="#000" d="M241.574,-61.6543C235.312,-58.9679 228.454,-56.211 222,-54 207.099,-48.8954 172.923,-39.9726 142.312,-32.2877"/><polygon fill="#000" stroke="#000" points="143.077 -28.872 132.527 -29.843 141.38 -35.663 143.077 -28.872"/></g><g id="node29" class="node"><title>L</title><ellipse cx="270" cy="-18" fill="none" stroke="#000" rx="103.977" ry="18"/><text x="270" y="-13.4" font-family="Times New Roman,serif" font-size="14" text-anchor="middle">descendant-or-self::text()</text></g><g id="edge23" class="edge"><title>J-&gt;L</title><path fill="none" stroke="#000" d="M259.594,-54.0188C259.674,-51.4953 259.854,-48.853 260.123,-46.1953"/><polygon fill="#000" stroke="#000" points="263.618 -46.484 261.578 -36.087 256.689 -45.486 263.618 -46.484"/></g><g id="edge45" class="edge"><title>K-&gt;L</title><path fill="none" stroke="red" d="M148.301,-18C150.774,-18 153.248,-18 155.721,-18"/><polygon fill="red" stroke="red" points="155.89 -21.5 165.89 -18 155.89 -14.5 155.89 -21.5"/></g><g id="edge47" class="edge"><title>L-&gt;J</title><path fill="none" stroke="red" d="M274.402,-36.0939C274.314,-38.8009 274.11,-41.6424 273.805,-44.4914"/><polygon fill="red" stroke="red" points="270.309 -44.208 272.286 -54.617 277.231 -45.247 270.309 -44.208"/></g></g></svg>