<svg xmlns="http://www.w3.org/2000/svg" xmlns:xlink="http://www.w3.org/1999/xlink" width="523pt" height="152pt" viewBox="0 0 523 152"><g id="graph1" class="graph" transform="scale(1 1) rotate(0) translate(4 148)"><title>g</title><polygon fill="#fff" stroke="#fff" points="-4 5 -4 -148 520 -148 520 5 -4 5"/><g id="node2" class="node"><title>d7e33184</title><ellipse cx="199" cy="-126" fill="none" stroke="#000" rx="53.838" ry="18"/><text x="199" y="-121.4" font-family="Times New Roman,serif" font-size="14" text-anchor="middle">xsl:template</text></g><g id="node4" class="node"><title>d7e33185</title><ellipse cx="62" cy="-72" fill="none" stroke="#000" rx="61.887" ry="18"/><text x="62" y="-67.4" font-family="Times New Roman,serif" font-size="14" text-anchor="middle">ancestor::para</text></g><g id="edge12" class="edge"><title>d7e33184-&gt;d7e33185</title><path fill="none" stroke="red" d="M164.075,-112.234C147.062,-105.528 126.379,-97.3758 108.091,-90.1674"/><polygon fill="red" stroke="red" points="109.365 -86.907 98.778 -86.496 106.798 -93.42 109.365 -86.907"/></g><g id="node6" class="node"><title>d7e33186</title><ellipse cx="199" cy="-72" fill="none" stroke="#000" rx="57.189" ry="18"/><text x="199" y="-67.4" font-family="Times New Roman,serif" font-size="14" text-anchor="middle">child::node()</text></g><g id="edge14" class="edge"><title>d7e33184-&gt;d7e33186</title><path fill="none" stroke="red" d="M199,-107.718C199,-105.343 199,-102.867 199,-100.375"/><polygon fill="red" stroke="red" points="202.5 -100.263 199 -90.263 195.5 -100.263 202.5 -100.263"/></g><g id="node11" class="node"><title>d7e33188</title><ellipse cx="382" cy="-72" fill="none" stroke="#000" rx="57.189" ry="18"/><text x="382" y="-67.4" font-family="Times New Roman,serif" font-size="14" text-anchor="middle">child::node()</text></g><g id="edge16" class="edge"><title>d7e33184-&gt;d7e33188</title><path fill="none" stroke="red" d="M239.614,-114.016C266.365,-106.122 301.624,-95.7174 330.363,-87.2373"/><polygon fill="red" stroke="red" points="331.631 -90.512 340.231 -84.325 329.649 -83.799 331.631 -90.512"/></g><g id="node8" class="node"><title>d7e33187</title><ellipse cx="173" cy="-18" fill="none" stroke="#000" rx="108.172" ry="18"/><text x="173" y="-13.4" font-family="Times New Roman,serif" font-size="14" text-anchor="middle">descendant-or-self::node()</text></g><g id="edge6" class="edge"><title>d7e33186-&gt;d7e33187</title><path fill="none" stroke="red" d="M190.342,-54.0188C188.997,-51.2249 187.582,-48.2855 186.164,-45.3406"/><polygon fill="red" stroke="red" points="189.2 -43.578 181.708 -36.087 182.893 -46.615 189.2 -43.578"/></g><g id="node13" class="node"><title>d7e33189</title><ellipse cx="407" cy="-18" fill="none" stroke="#000" rx="108.172" ry="18"/><text x="407" y="-13.4" font-family="Times New Roman,serif" font-size="14" text-anchor="middle">descendant-or-self::node()</text></g><g id="edge10" class="edge"><title>d7e33188-&gt;d7e33189</title><path fill="none" stroke="red" d="M390.325,-54.0188C391.618,-51.2249 392.979,-48.2855 394.342,-45.3406"/><polygon fill="red" stroke="red" points="397.601 -46.632 398.626 -36.087 391.249 -43.691 397.601 -46.632"/></g></g></svg>