<svg xmlns="http://www.w3.org/2000/svg" xmlns:xlink="http://www.w3.org/1999/xlink" width="206pt" height="98pt" viewBox="0 0 206 98"><g id="graph1" class="graph" transform="scale(1 1) rotate(0) translate(4 94)"><title>g</title><polygon fill="#fff" stroke="#fff" points="-4 5 -4 -94 203 -94 203 5 -4 5"/><g id="node2" class="node"><title>d7e5397</title><polygon fill="none" stroke="#000" points="54 -63 0 -63 0 -27 54 -27 54 -63"/><text x="27" y="-40.4" font-family="Times New Roman,serif" font-size="14" text-anchor="middle">A</text></g><g id="node4" class="node"><title>d7e5398</title><polygon fill="none" stroke="#000" points="126 -90 72 -90 72 -54 126 -54 126 -90"/><text x="99" y="-67.4" font-family="Times New Roman,serif" font-size="14" text-anchor="middle">B</text></g><g id="edge11" class="edge"><title>d7e5397-&gt;d7e5398</title><path fill="none" stroke="#000" d="M54.2201,-55.2075C56.8185,-56.182 59.4819,-57.1807 62.1516,-58.1818"/><polygon fill="#000" stroke="#000" points="61.149 -61.544 71.741 -61.778 63.607 -54.99 61.149 -61.544"/></g><g id="node9" class="node"><title>d7e5400</title><polygon fill="none" stroke="#000" points="126 -36 72 -36 72 0 126 0 126 -36"/><text x="99" y="-13.4" font-family="Times New Roman,serif" font-size="14" text-anchor="middle">C</text></g><g id="edge13" class="edge"><title>d7e5397-&gt;d7e5400</title><path fill="none" stroke="#000" d="M54.2201,-34.7925C56.8185,-33.818 59.4819,-32.8193 62.1516,-31.8182"/><polygon fill="#000" stroke="#000" points="63.607 -35.01 71.741 -28.222 61.149 -28.456 63.607 -35.01"/></g><g id="node6" class="node"><title>d7e5399</title><polygon fill="none" stroke="#000" points="198 -90 144 -90 144 -54 198 -54 198 -90"/><text x="171" y="-67.4" font-family="Times New Roman,serif" font-size="14" text-anchor="middle">D</text></g><g id="edge5" class="edge"><title>d7e5398-&gt;d7e5399</title><path fill="none" stroke="#000" d="M126.22,-72C128.639,-72 131.115,-72 133.599,-72"/><polygon fill="#000" stroke="#000" points="133.741 -75.5 143.741 -72 133.741 -68.5 133.741 -75.5"/></g><g id="node11" class="node"><title>d7e5401</title><polygon fill="none" stroke="#000" points="198 -36 144 -36 144 0 198 0 198 -36"/><text x="171" y="-13.4" font-family="Times New Roman,serif" font-size="14" text-anchor="middle">E</text></g><g id="edge9" class="edge"><title>d7e5400-&gt;d7e5401</title><path fill="none" stroke="#000" d="M126.22,-18C128.639,-18 131.115,-18 133.599,-18"/><polygon fill="#000" stroke="#000" points="133.741 -21.5 143.741 -18 133.741 -14.5 133.741 -21.5"/></g></g></svg>