<svg xmlns="http://www.w3.org/2000/svg" xmlns:xlink="http://www.w3.org/1999/xlink" width="896" height="368pt" viewBox="0 0 672 368"><g id="graph1" class="graph" transform="scale(1 1) rotate(0) translate(4 364)"><title>g</title><polygon fill="#fff" stroke="#fff" points="-4 5 -4 -364 669 -364 669 5 -4 5"/><g id="node2" class="node"><title>T</title><ellipse cx="57" cy="-342" fill="none" stroke="#000" rx="53.838" ry="18"/><text x="57" y="-337.4" font-family="Times New Roman,serif" font-size="14" text-anchor="middle">xsl:template</text></g><g id="node4" class="node"><title>d7e32590</title><ellipse cx="57" cy="-288" fill="none" stroke="#000" rx="34.212" ry="18"/><text x="57" y="-283.4" font-family="Times New Roman,serif" font-size="14" text-anchor="middle">&lt;out&gt;</text></g><g id="edge13" class="edge"><title>T-&gt;d7e32590</title><path fill="none" stroke="#000" d="M57,-323.718C57,-321.343 57,-318.867 57,-316.375"/><polygon fill="#000" stroke="#000" points="60.5 -316.263 57 -306.263 53.5 -316.263 60.5 -316.263"/></g><g id="node10" class="node"><title>dot</title><ellipse cx="57" cy="-126" fill="none" stroke="#000" rx="27" ry="18"/><text x="57" y="-121.4" font-family="Times New Roman,serif" font-size="14" text-anchor="middle">.</text></g><g id="edge68" class="edge"><title>T-&gt;dot</title><path fill="none" stroke="red" d="M81.0492,-325.671C87.9092,-320.082 94.8977,-313.362 100,-306 127.955,-265.664 121.186,-247.043 123,-198 123.591,-182.011 131.167,-175.758 123,-162 116.06,-150.31 103.842,-142.173 91.7899,-136.633"/><polygon fill="red" stroke="red" points="92.844 -133.283 82.263 -132.729 90.189 -139.76 92.844 -133.283"/></g><g id="node6" class="node"><title>d7e32591</title><ellipse cx="57" cy="-234" fill="none" stroke="#000" rx="53.164" ry="18"/><text x="57" y="-229.4" font-family="Times New Roman,serif" font-size="14" text-anchor="middle">xsl:value-of</text></g><g id="edge11" class="edge"><title>d7e32590-&gt;d7e32591</title><path fill="none" stroke="#000" d="M57,-269.718C57,-267.343 57,-264.867 57,-262.375"/><polygon fill="#000" stroke="#000" points="60.5 -262.263 57 -252.263 53.5 -262.263 60.5 -262.263"/></g><g id="node8" class="node"><title>FC1</title><ellipse cx="57" cy="-180" fill="none" stroke="#000" rx="57.189" ry="18"/><text x="57" y="-175.4" font-family="Times New Roman,serif" font-size="14" text-anchor="middle">f:div-depth()</text></g><g id="edge9" class="edge"><title>d7e32591-&gt;FC1</title><path fill="none" stroke="#000" d="M57,-215.718C57,-213.343 57,-210.867 57,-208.375"/><polygon fill="#000" stroke="#000" points="60.5 -208.263 57 -198.263 53.5 -208.263 60.5 -208.263"/></g><g id="edge7" class="edge"><title>FC1-&gt;dot</title><path fill="none" stroke="#000" d="M57,-161.718C57,-159.343 57,-156.867 57,-154.375"/><polygon fill="#000" stroke="#000" points="60.5 -154.263 57 -144.263 53.5 -154.263 60.5 -154.263"/></g><g id="node18" class="node"><title>par</title><ellipse cx="354" cy="-288" fill="none" stroke="#000" rx="61.887" ry="18"/><text x="354" y="-283.4" font-family="Times New Roman,serif" font-size="14" text-anchor="middle">xsl:param this</text></g><g id="edge70" class="edge"><title>dot-&gt;par</title><path fill="none" stroke="red" d="M82.915,-131.879C103.825,-137.426 133.38,-147.136 156,-162 201.981,-192.215 194.419,-222.719 241,-252 256.811,-261.939 275.603,-269.354 293.28,-274.786"/><polygon fill="red" stroke="red" points="292.38 -278.17 302.959 -277.604 294.336 -271.449 292.38 -278.17"/></g><g id="node16" class="node"><title>F</title><ellipse cx="407" cy="-342" fill="none" stroke="#000" rx="96.77" ry="18"/><text x="407" y="-337.4" font-family="Times New Roman,serif" font-size="14" text-anchor="middle">xsl:function f:div-depth</text></g><g id="edge64" class="edge"><title>F-&gt;FC1</title><path fill="none" stroke="red" d="M347.711,-327.724C326.897,-321.947 303.582,-314.595 283,-306 263.67,-297.928 152.534,-234.731 93.633,-201.021"/><polygon fill="red" stroke="red" points="95.067 -197.81 84.65 -195.877 91.589 -203.884 95.067 -197.81"/></g><g id="edge60" class="edge"><title>F-&gt;par</title><path fill="none" stroke="#000" d="M389.352,-324.019C385.755,-320.354 381.913,-316.439 378.135,-312.59"/><polygon fill="#000" stroke="#000" points="380.534 -310.038 371.032 -305.353 375.538 -314.941 380.534 -310.038"/></g><g id="node20" class="node"><title>d7e32596</title><ellipse cx="461" cy="-288" fill="none" stroke="#000" rx="27" ry="18"/><text x="461" y="-283.4" font-family="Times New Roman,serif" font-size="14" text-anchor="middle">if</text></g><g id="edge62" class="edge"><title>F-&gt;d7e32596</title><path fill="none" stroke="#000" d="M424.981,-324.019C429.305,-319.695 433.978,-315.022 438.48,-310.52"/><polygon fill="#000" stroke="#000" points="441.207 -312.743 445.803 -303.197 436.257 -307.793 441.207 -312.743"/></g><g id="node42" class="node"><title>FC2</title><ellipse cx="568" cy="-126" fill="none" stroke="#000" rx="71.949" ry="18"/><text x="568" y="-121.4" font-family="Times New Roman,serif" font-size="14" text-anchor="middle">f:nesting-depth()</text></g><g id="edge66" class="edge"><title>F-&gt;FC2</title><path fill="none" stroke="red" d="M465.871,-327.575C503.62,-314.763 549.144,-291.712 569,-252 584.373,-221.254 580.497,-180.778 575.21,-154.102"/><polygon fill="red" stroke="red" points="578.616 -153.292 573.072 -144.264 571.775 -154.779 578.616 -153.292"/></g><g id="node28" class="node"><title>vr1</title><ellipse cx="289" cy="-72" fill="none" stroke="#000" rx="28.174" ry="18"/><text x="289" y="-67.4" font-family="Times New Roman,serif" font-size="14" text-anchor="middle">$this</text></g><g id="edge78" class="edge"><title>par-&gt;vr1</title><path fill="none" stroke="red" d="M314.542,-273.949C302.285,-268.359 289.301,-261.064 279,-252 257.529,-233.107 252.111,-225.426 244,-198 232.656,-159.642 226.672,-144.052 244,-108 247.397,-100.933 252.932,-94.8183 258.977,-89.736"/><polygon fill="red" stroke="red" points="261.469 -92.243 267.384 -83.453 257.278 -86.636 261.469 -92.243"/></g><g id="node46" class="node"><title>vr2</title><ellipse cx="520" cy="-18" fill="none" stroke="#000" rx="28.174" ry="18"/><text x="520" y="-13.4" font-family="Times New Roman,serif" font-size="14" text-anchor="middle">$this</text></g><g id="edge80" class="edge"><title>par-&gt;vr2</title><path fill="none" stroke="red" d="M331.398,-270.871C325.584,-265.431 319.881,-258.992 316,-252 284.867,-195.906 279.358,-166.361 306,-108 310.966,-97.1212 317.214,-98.113 326,-90 343.092,-74.2172 343.501,-65.0019 364,-54 401.126,-34.0737 448.985,-25.123 481.848,-21.1365"/><polygon fill="red" stroke="red" points="482.407 -24.596 491.958 -20.009 481.631 -17.639 482.407 -24.596"/></g><g id="node22" class="node"><title>d7e32597</title><ellipse cx="387" cy="-234" fill="none" stroke="#000" rx="27" ry="18"/><text x="387" y="-229.4" font-family="Times New Roman,serif" font-size="14" text-anchor="middle">test</text></g><g id="edge54" class="edge"><title>d7e32596-&gt;d7e32597</title><path fill="none" stroke="#000" d="M442.708,-274.652C433.902,-268.226 423.179,-260.401 413.5,-253.338"/><polygon fill="#000" stroke="#000" points="415.479 -250.449 405.338 -247.382 411.353 -256.104 415.479 -250.449"/></g><g id="node36" class="node"><title>d7e32602</title><ellipse cx="461" cy="-234" fill="none" stroke="#000" rx="27" ry="18"/><text x="461" y="-229.4" font-family="Times New Roman,serif" font-size="14" text-anchor="middle">then</text></g><g id="edge56" class="edge"><title>d7e32596-&gt;d7e32602</title><path fill="none" stroke="#000" d="M461,-269.718C461,-267.343 461,-264.867 461,-262.375"/><polygon fill="#000" stroke="#000" points="464.5 -262.263 461 -252.263 457.5 -262.263 464.5 -262.263"/></g><g id="node56" class="node"><title>d7e32609</title><ellipse cx="533" cy="-234" fill="none" stroke="#000" rx="27" ry="18"/><text x="533" y="-229.4" font-family="Times New Roman,serif" font-size="14" text-anchor="middle">else</text></g><g id="edge58" class="edge"><title>d7e32596-&gt;d7e32609</title><path fill="none" stroke="#000" d="M479.169,-274.374C487.461,-268.154 497.443,-260.668 506.547,-253.84"/><polygon fill="#000" stroke="#000" points="508.687 -256.61 514.587 -247.81 504.487 -251.01 508.687 -256.61"/></g><g id="node24" class="node"><title>d7e32598</title><ellipse cx="370" cy="-180" fill="none" stroke="#000" rx="45.789" ry="18"/><text x="370" y="-175.4" font-family="Times New Roman,serif" font-size="14" text-anchor="middle">boolean()</text></g><g id="edge29" class="edge"><title>d7e32597-&gt;d7e32598</title><path fill="none" stroke="#000" d="M381.434,-216.318C380.562,-213.55 379.644,-210.633 378.722,-207.704"/><polygon fill="#000" stroke="#000" points="381.979 -206.394 375.637 -197.906 375.302 -208.496 381.979 -206.394"/></g><g id="node26" class="node"><title>path1</title><ellipse cx="370" cy="-126" fill="none" stroke="#000" rx="27" ry="18"/><text x="370" y="-121.4" font-family="Times New Roman,serif" font-size="14" text-anchor="middle">path</text></g><g id="edge27" class="edge"><title>d7e32598-&gt;path1</title><path fill="none" stroke="#000" d="M370,-161.718C370,-159.343 370,-156.867 370,-154.375"/><polygon fill="#000" stroke="#000" points="373.5 -154.263 370 -144.263 366.5 -154.263 373.5 -154.263"/></g><g id="edge23" class="edge"><title>path1-&gt;vr1</title><path fill="none" stroke="#000" d="M350.804,-113.203C340.763,-106.509 328.28,-98.1869 317.167,-90.778"/><polygon fill="#000" stroke="#000" points="318.883 -87.715 308.621 -85.081 315 -93.54 318.883 -87.715"/></g><g id="node30" class="node"><title>parent1</title><ellipse cx="422" cy="-72" fill="none" stroke="#000" rx="49.139" ry="18"/><text x="422" y="-67.4" font-family="Times New Roman,serif" font-size="14" text-anchor="middle">parent::div</text></g><g id="edge25" class="edge"><title>path1-&gt;parent1</title><path fill="none" stroke="#000" d="M379.867,-109.21C383.689,-104.821 388.19,-100.011 392.822,-95.348"/><polygon fill="#000" stroke="#000" points="395.412 -97.711 400.129 -88.225 390.525 -92.699 395.412 -97.711"/></g><g id="edge82" class="edge"><title>vr1-&gt;parent1</title><path fill="none" stroke="red" d="M317.055,-72C332.299,-72 347.544,-72 362.789,-72"/><polygon fill="red" stroke="red" points="362.807 -75.5 372.807 -72 362.807 -68.5 362.807 -75.5"/></g><g id="edge74" class="edge"><title>parent1-&gt;path1</title><path fill="none" stroke="red" d="M411.177,-89.8804C406.774,-94.8713 401.574,-100.333 396.35,-105.464"/><polygon fill="red" stroke="red" points="393.618 -103.231 388.77 -112.652 398.435 -108.311 393.618 -103.231"/></g><g id="node38" class="node"><title>d7e32603</title><ellipse cx="461" cy="-180" fill="none" stroke="#000" rx="27" ry="18"/><text x="461" y="-175.4" font-family="Times New Roman,serif" font-size="14" text-anchor="middle">plus</text></g><g id="edge48" class="edge"><title>d7e32602-&gt;d7e32603</title><path fill="none" stroke="#000" d="M461,-215.718C461,-213.343 461,-210.867 461,-208.375"/><polygon fill="#000" stroke="#000" points="464.5 -208.263 461 -198.263 457.5 -208.263 464.5 -208.263"/></g><g id="node40" class="node"><title>d7e32604</title><ellipse cx="451" cy="-126" fill="none" stroke="#000" rx="27" ry="18"/><text x="451" y="-121.4" font-family="Times New Roman,serif" font-size="14" text-anchor="middle">1</text></g><g id="edge44" class="edge"><title>d7e32603-&gt;d7e32604</title><path fill="none" stroke="#000" d="M457.67,-162.019C457.203,-159.495 456.714,-156.853 456.221,-154.195"/><polygon fill="#000" stroke="#000" points="459.612 -153.282 454.349 -144.087 452.729 -154.557 459.612 -153.282"/></g><g id="edge46" class="edge"><title>d7e32603-&gt;FC2</title><path fill="none" stroke="#000" d="M482.653,-169.072C495.296,-162.692 511.669,-154.429 526.688,-146.849"/><polygon fill="#000" stroke="#000" points="528.469 -149.871 535.819 -142.241 525.315 -143.622 528.469 -149.871"/></g><g id="node44" class="node"><title>path2</title><ellipse cx="568" cy="-72" fill="none" stroke="#000" rx="27" ry="18"/><text x="568" y="-67.4" font-family="Times New Roman,serif" font-size="14" text-anchor="middle">path</text></g><g id="edge42" class="edge"><title>FC2-&gt;path2</title><path fill="none" stroke="#000" d="M568,-107.718C568,-105.343 568,-102.867 568,-100.375"/><polygon fill="#000" stroke="#000" points="571.5 -100.263 568 -90.263 564.5 -100.263 571.5 -100.263"/></g><g id="edge72" class="edge"><title>path2-&gt;par</title><path fill="none" stroke="red" d="M542.3,-77.8157C524.804,-81.6372 501.083,-86.5496 480,-90 447.739,-95.2796 359.469,-87.5065 334,-108 302.149,-133.629 306.7,-157.97 315,-198 319.609,-220.229 329.994,-243.713 338.889,-261.116"/><polygon fill="red" stroke="red" points="335.872 -262.899 343.632 -270.113 342.065 -259.635 335.872 -262.899"/></g><g id="edge38" class="edge"><title>path2-&gt;vr2</title><path fill="none" stroke="#000" d="M554.116,-56.381C549.974,-51.7203 545.339,-46.5059 540.853,-41.4593"/><polygon fill="#000" stroke="#000" points="543.278 -38.92 534.019 -33.771 538.046 -43.57 543.278 -38.92"/></g><g id="node48" class="node"><title>parent2</title><ellipse cx="615" cy="-18" fill="none" stroke="#000" rx="49.139" ry="18"/><text x="615" y="-13.4" font-family="Times New Roman,serif" font-size="14" text-anchor="middle">parent::div</text></g><g id="edge40" class="edge"><title>path2-&gt;parent2</title><path fill="none" stroke="#000" d="M576.543,-54.9141C579.742,-50.8199 583.485,-46.3726 587.372,-42.0292"/><polygon fill="#000" stroke="#000" points="590.198 -44.13 594.44 -34.422 585.07 -39.365 590.198 -44.13"/></g><g id="edge84" class="edge"><title>vr2-&gt;parent2</title><path fill="none" stroke="red" d="M548.203,-18C550.698,-18 553.193,-18 555.688,-18"/><polygon fill="red" stroke="red" points="555.946 -21.5 565.946 -18 555.946 -14.5 555.946 -21.5"/></g><g id="edge76" class="edge"><title>parent2-&gt;path2</title><path fill="none" stroke="red" d="M605.968,-35.7097C602.157,-40.5458 597.629,-45.8347 593.023,-50.8421"/><polygon fill="red" stroke="red" points="590.2 -48.73 585.812 -58.373 595.256 -53.571 590.2 -48.73"/></g><g id="node58" class="node"><title>d7e32610</title><ellipse cx="533" cy="-180" fill="none" stroke="#000" rx="27" ry="18"/><text x="533" y="-175.4" font-family="Times New Roman,serif" font-size="14" text-anchor="middle">0</text></g><g id="edge52" class="edge"><title>d7e32609-&gt;d7e32610</title><path fill="none" stroke="#000" d="M533,-215.718C533,-213.343 533,-210.867 533,-208.375"/><polygon fill="#000" stroke="#000" points="536.5 -208.263 533 -198.263 529.5 -208.263 536.5 -208.263"/></g></g></svg>