<svg xmlns="http://www.w3.org/2000/svg" xmlns:xlink="http://www.w3.org/1999/xlink" width="922pt" height="476pt" viewBox="0 0 922 476"><g id="graph1" class="graph" transform="scale(1 1) rotate(0) translate(4 472)"><title>g</title><polygon fill="#fff" stroke="#fff" points="-4 5 -4 -472 919 -472 919 5 -4 5"/><g id="node2" class="node"><title>d7e33207</title><ellipse cx="334" cy="-450" fill="none" stroke="#000" rx="47.801" ry="18"/><text x="334" y="-445.4" font-family="Times New Roman,serif" font-size="14" text-anchor="middle">xsl:stream</text></g><g id="node4" class="node"><title>d7e33208</title><ellipse cx="334" cy="-396" fill="none" stroke="#000" rx="53.838" ry="18"/><text x="334" y="-391.4" font-family="Times New Roman,serif" font-size="14" text-anchor="middle">xsl:for-each</text></g><g id="edge85" class="edge"><title>d7e33207-&gt;d7e33208</title><path fill="none" stroke="#000" d="M334,-431.718C334,-429.343 334,-426.867 334,-424.375"/><polygon fill="#000" stroke="#000" points="337.5 -424.263 334 -414.263 330.5 -424.263 337.5 -424.263"/></g><g id="node6" class="node"><title>d7e33209</title><ellipse cx="263" cy="-342" fill="none" stroke="#000" rx="27" ry="18"/><text x="263" y="-337.4" font-family="Times New Roman,serif" font-size="14" text-anchor="middle">path</text></g><g id="edge81" class="edge"><title>d7e33208-&gt;d7e33209</title><path fill="none" stroke="#000" d="M312.312,-379.505C305.16,-374.065 297.122,-367.952 289.644,-362.264"/><polygon fill="#000" stroke="#000" points="291.288 -359.117 281.209 -355.849 287.05 -364.689 291.288 -359.117"/></g><g id="node14" class="node"><title>d7e33212</title><ellipse cx="406" cy="-342" fill="none" stroke="#000" rx="45.114" ry="18"/><text x="406" y="-337.4" font-family="Times New Roman,serif" font-size="14" text-anchor="middle">sequence</text></g><g id="edge83" class="edge"><title>d7e33208-&gt;d7e33212</title><path fill="none" stroke="#000" d="M355.994,-379.505C362.391,-374.707 369.487,-369.385 376.276,-364.293"/><polygon fill="#000" stroke="#000" points="378.735 -366.824 384.635 -358.024 374.535 -361.224 378.735 -366.824"/></g><g id="node8" class="node"><title>d7e33210</title><ellipse cx="109" cy="-288" fill="none" stroke="#000" rx="61.887" ry="18"/><text x="109" y="-283.4" font-family="Times New Roman,serif" font-size="14" text-anchor="middle">child::account</text></g><g id="edge7" class="edge"><title>d7e33209-&gt;d7e33210</title><path fill="none" stroke="#000" d="M238.938,-333.563C217.465,-326.033 185.347,-314.771 158.417,-305.328"/><polygon fill="#000" stroke="#000" points="159.354 -301.948 148.759 -301.941 157.037 -308.553 159.354 -301.948"/></g><g id="node10" class="node"><title>d7e33211</title><ellipse cx="263" cy="-288" fill="none" stroke="#000" rx="73.79" ry="18"/><text x="263" y="-283.4" font-family="Times New Roman,serif" font-size="14" text-anchor="middle">child::transaction</text></g><g id="edge9" class="edge"><title>d7e33209-&gt;d7e33211</title><path fill="none" stroke="#000" d="M263,-323.718C263,-321.343 263,-318.867 263,-316.375"/><polygon fill="#000" stroke="#000" points="266.5 -316.263 263 -306.263 259.5 -316.263 266.5 -316.263"/></g><g id="node16" class="node"><title>d7e33213</title><ellipse cx="406" cy="-288" fill="none" stroke="#000" rx="50.982" ry="18"/><text x="406" y="-283.4" font-family="Times New Roman,serif" font-size="14" text-anchor="middle">$branch :=</text></g><g id="edge77" class="edge"><title>d7e33212-&gt;d7e33213</title><path fill="none" stroke="#000" d="M406,-323.718C406,-321.343 406,-318.867 406,-316.375"/><polygon fill="#000" stroke="#000" points="409.5 -316.263 406 -306.263 402.5 -316.263 409.5 -316.263"/></g><g id="node48" class="node"><title>d7e33224</title><ellipse cx="534" cy="-288" fill="none" stroke="#000" rx="53.164" ry="18"/><text x="534" y="-283.4" font-family="Times New Roman,serif" font-size="14" text-anchor="middle">xsl:copy-of</text></g><g id="edge79" class="edge"><title>d7e33212-&gt;d7e33224</title><path fill="none" stroke="#000" d="M436.985,-328.928C453.216,-322.081 473.349,-313.587 491.06,-306.115"/><polygon fill="#000" stroke="#000" points="492.757 -309.198 500.61 -302.087 490.036 -302.749 492.757 -309.198"/></g><g id="node18" class="node"><title>d7e33214</title><ellipse cx="394" cy="-234" fill="none" stroke="#000" rx="27.004" ry="18"/><text x="394" y="-229.4" font-family="Times New Roman,serif" font-size="14" text-anchor="middle">filter</text></g><g id="edge41" class="edge"><title>d7e33213-&gt;d7e33214</title><path fill="none" stroke="#000" d="M402.004,-270.019C401.423,-267.405 400.814,-264.664 400.202,-261.91"/><polygon fill="#000" stroke="#000" points="403.605 -261.089 398.019 -252.087 396.772 -262.608 403.605 -261.089"/></g><g id="node20" class="node"><title>d7e33215</title><ellipse cx="195" cy="-180" fill="none" stroke="#000" rx="27" ry="18"/><text x="195" y="-175.4" font-family="Times New Roman,serif" font-size="14" text-anchor="middle">path</text></g><g id="edge37" class="edge"><title>d7e33214-&gt;d7e33215</title><path fill="none" stroke="#000" d="M368.797,-227.161C333.679,-217.632 269.876,-200.318 230.115,-189.529"/><polygon fill="#000" stroke="#000" points="230.88 -186.11 220.312 -186.869 229.047 -192.865 230.88 -186.11"/></g><g id="node31" class="node"><title>d7e33219</title><ellipse cx="394" cy="-180" fill="none" stroke="#000" rx="27" ry="18"/><text x="394" y="-175.4" font-family="Times New Roman,serif" font-size="14" text-anchor="middle">=</text></g><g id="edge39" class="edge"><title>d7e33214-&gt;d7e33219</title><path fill="none" stroke="#000" d="M394,-215.718C394,-213.343 394,-210.867 394,-208.375"/><polygon fill="#000" stroke="#000" points="397.5 -208.263 394 -198.263 390.5 -208.263 397.5 -208.263"/></g><g id="node22" class="node"><title>d7e33216</title><ellipse cx="64" cy="-126" fill="none" stroke="#000" rx="31.028" ry="18"/><text x="64" y="-121.4" font-family="Times New Roman,serif" font-size="14" text-anchor="middle">doc()</text></g><g id="edge20" class="edge"><title>d7e33215-&gt;d7e33216</title><path fill="none" stroke="#000" d="M171.31,-170.973C152.873,-163.864 126.693,-153.589 104,-144 101.948,-143.133 99.8431,-142.229 97.7236,-141.308"/><polygon fill="#000" stroke="#000" points="99.022 -138.056 88.46 -137.222 96.197 -144.46 99.022 -138.056"/></g><g id="node27" class="node"><title>d7e33218</title><ellipse cx="195" cy="-126" fill="none" stroke="#000" rx="82.011" ry="18"/><text x="195" y="-121.4" font-family="Times New Roman,serif" font-size="14" text-anchor="middle">descendant::branch</text></g><g id="edge22" class="edge"><title>d7e33215-&gt;d7e33218</title><path fill="none" stroke="#000" d="M195,-161.718C195,-159.343 195,-156.867 195,-154.375"/><polygon fill="#000" stroke="#000" points="198.5 -154.263 195 -144.263 191.5 -154.263 198.5 -154.263"/></g><g id="node24" class="node"><title>d7e33217</title><ellipse cx="64" cy="-72" fill="none" stroke="#000" rx="63.9" ry="18"/><text x="64" y="-67.4" font-family="Times New Roman,serif" font-size="14" text-anchor="middle">&apos;branches.xml&apos;</text></g><g id="edge17" class="edge"><title>d7e33216-&gt;d7e33217</title><path fill="none" stroke="#000" d="M64,-107.718C64,-105.343 64,-102.867 64,-100.375"/><polygon fill="#000" stroke="#000" points="67.5 -100.263 64 -90.263 60.5 -100.263 67.5 -100.263"/></g><g id="node33" class="node"><title>d7e33220</title><ellipse cx="346" cy="-126" fill="none" stroke="#000" rx="51.152" ry="18"/><text x="346" y="-121.4" font-family="Times New Roman,serif" font-size="14" text-anchor="middle">child::code</text></g><g id="edge33" class="edge"><title>d7e33219-&gt;d7e33220</title><path fill="none" stroke="#000" d="M380.116,-164.381C376.356,-160.151 372.19,-155.464 368.098,-150.861"/><polygon fill="#000" stroke="#000" points="370.627 -148.437 361.367 -143.288 365.395 -153.087 370.627 -148.437"/></g><g id="node35" class="node"><title>d7e33221</title><ellipse cx="442" cy="-126" fill="none" stroke="#000" rx="27" ry="18"/><text x="442" y="-121.4" font-family="Times New Roman,serif" font-size="14" text-anchor="middle">path</text></g><g id="edge35" class="edge"><title>d7e33219-&gt;d7e33221</title><path fill="none" stroke="#000" d="M407.884,-164.381C412.026,-159.72 416.661,-154.506 421.147,-149.459"/><polygon fill="#000" stroke="#000" points="423.954 -151.57 427.981 -141.771 418.722 -146.92 423.954 -151.57"/></g><g id="node37" class="node"><title>d7e33222</title><ellipse cx="323" cy="-72" fill="none" stroke="#000" rx="42.932" ry="18"/><text x="323" y="-67.4" font-family="Times New Roman,serif" font-size="14" text-anchor="middle">current()</text></g><g id="edge29" class="edge"><title>d7e33221-&gt;d7e33222</title><path fill="none" stroke="#000" d="M420.391,-114.957C415.671,-112.612 410.686,-110.186 406,-108 392.006,-101.472 376.519,-94.6492 362.75,-88.72"/><polygon fill="#000" stroke="#000" points="364.102 -85.492 353.532 -84.773 361.347 -91.926 364.102 -85.492"/></g><g id="node39" class="node"><title>d7e33223</title><ellipse cx="442" cy="-72" fill="none" stroke="#000" rx="57.863" ry="18"/><text x="442" y="-67.4" font-family="Times New Roman,serif" font-size="14" text-anchor="middle">child::branch</text></g><g id="edge31" class="edge"><title>d7e33221-&gt;d7e33223</title><path fill="none" stroke="#000" d="M442,-107.718C442,-105.343 442,-102.867 442,-100.375"/><polygon fill="#000" stroke="#000" points="445.5 -100.263 442 -90.263 438.5 -100.263 445.5 -100.263"/></g><g id="node50" class="node"><title>d7e33225</title><ellipse cx="558" cy="-234" fill="none" stroke="#000" rx="27.004" ry="18"/><text x="558" y="-229.4" font-family="Times New Roman,serif" font-size="14" text-anchor="middle">filter</text></g><g id="edge75" class="edge"><title>d7e33224-&gt;d7e33225</title><path fill="none" stroke="#000" d="M541.992,-270.019C543.328,-267.012 544.739,-263.837 546.148,-260.668"/><polygon fill="#000" stroke="#000" points="549.424 -261.913 550.288 -251.353 543.028 -259.07 549.424 -261.913"/></g><g id="node52" class="node"><title>d7e33226</title><ellipse cx="558" cy="-180" fill="none" stroke="#000" rx="27" ry="18"/><text x="558" y="-175.4" font-family="Times New Roman,serif" font-size="14" text-anchor="middle">.</text></g><g id="edge71" class="edge"><title>d7e33225-&gt;d7e33226</title><path fill="none" stroke="#000" d="M558,-215.718C558,-213.343 558,-210.867 558,-208.375"/><polygon fill="#000" stroke="#000" points="561.5 -208.263 558 -198.263 554.5 -208.263 561.5 -208.263"/></g><g id="node54" class="node"><title>d7e33227</title><ellipse cx="637" cy="-180" fill="none" stroke="#000" rx="27" ry="18"/><text x="637" y="-175.4" font-family="Times New Roman,serif" font-size="14" text-anchor="middle">and</text></g><g id="edge73" class="edge"><title>d7e33225-&gt;d7e33227</title><path fill="none" stroke="#000" d="M577.124,-220.928C586.924,-214.229 599.03,-205.954 609.786,-198.602"/><polygon fill="#000" stroke="#000" points="611.772 -201.484 618.052 -192.952 607.822 -195.705 611.772 -201.484"/></g><g id="node56" class="node"><title>d7e33228</title><ellipse cx="637" cy="-126" fill="none" stroke="#000" rx="27" ry="18"/><text x="637" y="-121.4" font-family="Times New Roman,serif" font-size="14" text-anchor="middle">gt</text></g><g id="edge67" class="edge"><title>d7e33227-&gt;d7e33228</title><path fill="none" stroke="#000" d="M637,-161.718C637,-159.343 637,-156.867 637,-154.375"/><polygon fill="#000" stroke="#000" points="640.5 -154.263 637 -144.263 633.5 -154.263 640.5 -154.263"/></g><g id="node64" class="node"><title>d7e33231</title><ellipse cx="781" cy="-126" fill="none" stroke="#000" rx="27" ry="18"/><text x="781" y="-121.4" font-family="Times New Roman,serif" font-size="14" text-anchor="middle">eq</text></g><g id="edge69" class="edge"><title>d7e33227-&gt;d7e33231</title><path fill="none" stroke="#000" d="M660.779,-171.083C684.437,-162.211 720.951,-148.518 747.532,-138.55"/><polygon fill="#000" stroke="#000" points="749.052 -141.719 757.186 -134.93 746.594 -135.164 749.052 -141.719"/></g><g id="node58" class="node"><title>d7e33229</title><ellipse cx="578" cy="-72" fill="none" stroke="#000" rx="59.875" ry="18"/><text x="578" y="-67.4" font-family="Times New Roman,serif" font-size="14" text-anchor="middle">child::amount</text></g><g id="edge50" class="edge"><title>d7e33228-&gt;d7e33229</title><path fill="none" stroke="#000" d="M620.878,-111.244C615.811,-106.607 610.077,-101.358 604.488,-96.2431"/><polygon fill="#000" stroke="#000" points="606.773 -93.59 597.033 -89.42 602.047 -98.754 606.773 -93.59"/></g><g id="node60" class="node"><title>d7e33230</title><ellipse cx="696" cy="-72" fill="none" stroke="#000" rx="40.249" ry="18"/><text x="696" y="-67.4" font-family="Times New Roman,serif" font-size="14" text-anchor="middle">1000.00</text></g><g id="edge52" class="edge"><title>d7e33228-&gt;d7e33230</title><path fill="none" stroke="#000" d="M653.122,-111.244C658.592,-106.238 664.84,-100.52 670.843,-95.0254"/><polygon fill="#000" stroke="#000" points="673.224 -97.59 678.238 -88.257 668.498 -92.426 673.224 -97.59"/></g><g id="node66" class="node"><title>d7e33232</title><ellipse cx="781" cy="-72" fill="none" stroke="#000" rx="27" ry="18"/><text x="781" y="-67.4" font-family="Times New Roman,serif" font-size="14" text-anchor="middle">path</text></g><g id="edge63" class="edge"><title>d7e33231-&gt;d7e33232</title><path fill="none" stroke="#000" d="M781,-107.718C781,-105.343 781,-102.867 781,-100.375"/><polygon fill="#000" stroke="#000" points="784.5 -100.263 781 -90.263 777.5 -100.263 784.5 -100.263"/></g><g id="node74" class="node"><title>d7e33235</title><ellipse cx="870" cy="-72" fill="none" stroke="#000" rx="43.777" ry="18"/><text x="870" y="-67.4" font-family="Times New Roman,serif" font-size="14" text-anchor="middle">&apos;Skipton&apos;</text></g><g id="edge65" class="edge"><title>d7e33231-&gt;d7e33235</title><path fill="none" stroke="#000" d="M801.195,-113.747C811.576,-107.448 824.502,-99.6053 836.339,-92.4236"/><polygon fill="#000" stroke="#000" points="838.384 -95.277 845.118 -87.097 834.753 -89.292 838.384 -95.277"/></g><g id="node68" class="node"><title>d7e33233</title><ellipse cx="725" cy="-18" fill="none" stroke="#000" rx="40.92" ry="18"/><text x="725" y="-13.4" font-family="Times New Roman,serif" font-size="14" text-anchor="middle">$branch</text></g><g id="edge58" class="edge"><title>d7e33232-&gt;d7e33233</title><path fill="none" stroke="#000" d="M765.401,-56.958C760.417,-52.1521 754.776,-46.7127 749.324,-41.4557"/><polygon fill="#000" stroke="#000" points="751.715 -38.899 742.087 -34.477 746.856 -43.938 751.715 -38.899"/></g><g id="node70" class="node"><title>d7e33234</title><ellipse cx="836" cy="-18" fill="none" stroke="#000" rx="51.826" ry="18"/><text x="836" y="-13.4" font-family="Times New Roman,serif" font-size="14" text-anchor="middle">child::name</text></g><g id="edge60" class="edge"><title>d7e33232-&gt;d7e33234</title><path fill="none" stroke="#000" d="M796.321,-56.958C800.933,-52.429 806.119,-47.3375 811.183,-42.3663"/><polygon fill="#000" stroke="#000" points="813.749 -44.752 818.432 -35.248 808.845 -39.757 813.749 -44.752"/></g></g></svg>