<svg xmlns="http://www.w3.org/2000/svg" xmlns:xlink="http://www.w3.org/1999/xlink" width="1060" height="422pt" viewBox="0 0 795.1 422"><g id="graph1" class="graph" transform="scale(1 1) rotate(0) translate(4 418)"><title>g</title><polygon fill="#fff" stroke="#fff" points="-4 5 -4 -418 792.095 -418 792.095 5 -4 5"/><g id="node2" class="node"><title>T</title><ellipse cx="331" cy="-396" fill="none" stroke="#000" rx="53.838" ry="18"/><text x="331" y="-391.4" font-family="Times New Roman,serif" font-size="14" text-anchor="middle">xsl:template</text></g><g id="node4" class="node"><title>d7e33144</title><ellipse cx="331" cy="-342" fill="none" stroke="#000" rx="27" ry="18"/><text x="331" y="-337.4" font-family="Times New Roman,serif" font-size="14" text-anchor="middle">if</text></g><g id="edge61" class="edge"><title>T-&gt;d7e33144</title><path fill="none" stroke="#000" d="M331,-377.718C331,-375.343 331,-372.867 331,-370.375"/><polygon fill="#000" stroke="#000" points="334.5 -370.263 331 -360.263 327.5 -370.263 334.5 -370.263"/></g><g id="node10" class="node"><title>s0</title><ellipse cx="224" cy="-180" fill="none" stroke="#000" rx="61.887" ry="18"/><text x="224" y="-175.4" font-family="Times New Roman,serif" font-size="14" text-anchor="middle">ancestor::para</text></g><g id="edge83" class="edge"><title>T-&gt;s0</title><path fill="none" stroke="red" d="M349.589,-378.869C366.387,-363.729 392.076,-341.412 416,-324 428.265,-315.073 432.595,-314.732 445,-306 448.945,-303.223 510.902,-256.344 513,-252 519.957,-237.592 523.838,-227.77 513,-216 496.536,-198.121 318.973,-202 295,-198 289.669,-197.111 284.152,-196.02 278.656,-194.82"/><polygon fill="red" stroke="red" points="279.363 -191.392 268.833 -192.562 277.795 -198.214 279.363 -191.392"/></g><g id="node24" class="node"><title>c1</title><ellipse cx="57" cy="-18" fill="none" stroke="#000" rx="57.189" ry="18"/><text x="57" y="-13.4" font-family="Times New Roman,serif" font-size="14" text-anchor="middle">child::node()</text></g><g id="edge85" class="edge"><title>T-&gt;c1</title><path fill="none" stroke="red" d="M366.373,-382.157C379.648,-376.227 394.529,-368.661 407,-360 425.845,-346.912 424.845,-336.629 444,-324 474.441,-303.93 726.764,-228.331 747,-198 755.88,-184.69 754.742,-176.002 747,-162 736.081,-142.251 596.557,-60.674 575,-54 478.973,-24.2696 222.349,-51.3229 123,-36 117.993,-35.2278 112.822,-34.2131 107.681,-33.0583"/><polygon fill="red" stroke="red" points="108.424 -29.637 97.882 -30.692 106.781 -36.442 108.424 -29.637"/></g><g id="node47" class="node"><title>c2</title><ellipse cx="481" cy="-18" fill="none" stroke="#000" rx="57.189" ry="18"/><text x="481" y="-13.4" font-family="Times New Roman,serif" font-size="14" text-anchor="middle">child::node()</text></g><g id="edge87" class="edge"><title>T-&gt;c2</title><path fill="none" stroke="red" d="M370.91,-383.835C392.616,-377.082 419.881,-368.374 444,-360 600.614,-305.626 720.29,-352.658 780,-198 811.054,-117.564 728.261,-90.1876 650,-54 607.82,-34.4958 592.355,-46.1247 547,-36 542.577,-35.0127 538.006,-33.9198 533.43,-32.7747"/><polygon fill="red" stroke="red" points="534.016 -29.311 523.459 -30.206 532.269 -36.09 534.016 -29.311"/></g><g id="node6" class="node"><title>d7e33145</title><ellipse cx="243" cy="-288" fill="none" stroke="#000" rx="27" ry="18"/><text x="243" y="-283.4" font-family="Times New Roman,serif" font-size="14" text-anchor="middle">test</text></g><g id="edge55" class="edge"><title>d7e33144-&gt;d7e33145</title><path fill="none" stroke="#000" d="M311.031,-329.747C299.33,-322.566 284.358,-313.379 271.439,-305.451"/><polygon fill="#000" stroke="#000" points="273.243 -302.452 262.89 -300.205 269.582 -308.418 273.243 -302.452"/></g><g id="node14" class="node"><title>d7e33148</title><ellipse cx="331" cy="-288" fill="none" stroke="#000" rx="27" ry="18"/><text x="331" y="-283.4" font-family="Times New Roman,serif" font-size="14" text-anchor="middle">then</text></g><g id="edge57" class="edge"><title>d7e33144-&gt;d7e33148</title><path fill="none" stroke="#000" d="M331,-323.718C331,-321.343 331,-318.867 331,-316.375"/><polygon fill="#000" stroke="#000" points="334.5 -316.263 331 -306.263 327.5 -316.263 334.5 -316.263"/></g><g id="node37" class="node"><title>d7e33156</title><ellipse cx="409" cy="-288" fill="none" stroke="#000" rx="27" ry="18"/><text x="409" y="-283.4" font-family="Times New Roman,serif" font-size="14" text-anchor="middle">else</text></g><g id="edge59" class="edge"><title>d7e33144-&gt;d7e33156</title><path fill="none" stroke="#000" d="M349.882,-328.928C359.392,-322.344 371.101,-314.238 381.582,-306.982"/><polygon fill="#000" stroke="#000" points="383.792 -309.708 390.022 -301.139 379.808 -303.953 383.792 -309.708"/></g><g id="node8" class="node"><title>d7e33146</title><ellipse cx="226" cy="-234" fill="none" stroke="#000" rx="45.789" ry="18"/><text x="226" y="-229.4" font-family="Times New Roman,serif" font-size="14" text-anchor="middle">boolean()</text></g><g id="edge9" class="edge"><title>d7e33145-&gt;d7e33146</title><path fill="none" stroke="#000" d="M237.434,-270.318C236.562,-267.55 235.644,-264.633 234.722,-261.704"/><polygon fill="#000" stroke="#000" points="237.979 -260.394 231.637 -251.906 231.302 -262.496 237.979 -260.394"/></g><g id="edge7" class="edge"><title>d7e33146-&gt;s0</title><path fill="none" stroke="#000" d="M225.323,-215.718C225.235,-213.343 225.143,-210.867 225.051,-208.375"/><polygon fill="#000" stroke="#000" points="228.544 -208.127 224.676 -198.263 221.549 -208.386 228.544 -208.127"/></g><g id="node16" class="node"><title>lre1</title><ellipse cx="331" cy="-234" fill="none" stroke="#000" rx="39.077" ry="18"/><text x="331" y="-229.4" font-family="Times New Roman,serif" font-size="14" text-anchor="middle">&lt;span&gt;</text></g><g id="edge31" class="edge"><title>d7e33148-&gt;lre1</title><path fill="none" stroke="#000" d="M331,-269.718C331,-267.343 331,-264.867 331,-262.375"/><polygon fill="#000" stroke="#000" points="334.5 -262.263 331 -252.263 327.5 -262.263 334.5 -262.263"/></g><g id="edge79" class="edge"><title>lre1-&gt;T</title><path fill="none" stroke="red" d="M367.54,-240.698C397.234,-246.971 435.676,-257.277 445,-270 474.548,-310.318 415.035,-352.465 371.415,-376.356"/><polygon fill="red" stroke="red" points="369.564 -373.377 362.386 -381.17 372.857 -379.554 369.564 -373.377"/></g><g id="node18" class="node"><title>pp1</title><ellipse cx="331" cy="-180" fill="none" stroke="#000" rx="27" ry="18"/><text x="331" y="-175.4" font-family="Times New Roman,serif" font-size="14" text-anchor="middle">path</text></g><g id="edge29" class="edge"><title>lre1-&gt;pp1</title><path fill="none" stroke="#000" d="M331,-215.718C331,-213.343 331,-210.867 331,-208.375"/><polygon fill="#000" stroke="#000" points="334.5 -208.263 331 -198.263 327.5 -208.263 334.5 -208.263"/></g><g id="node20" class="node"><title>a1</title><ellipse cx="123" cy="-126" fill="none" stroke="#000" rx="82.011" ry="18"/><text x="123" y="-121.4" font-family="Times New Roman,serif" font-size="14" text-anchor="middle">xsl:apply-templates</text></g><g id="edge25" class="edge"><title>pp1-&gt;a1</title><path fill="none" stroke="#000" d="M310.073,-168.407C305.226,-166.042 300.015,-163.746 295,-162 285.177,-158.58 237.007,-148.588 194.135,-139.996"/><polygon fill="#000" stroke="#000" points="194.725 -136.544 184.233 -138.017 193.354 -143.409 194.725 -136.544"/></g><g id="node31" class="node"><title>dd1</title><ellipse cx="331" cy="-126" fill="none" stroke="#000" rx="108.172" ry="18"/><text x="331" y="-121.4" font-family="Times New Roman,serif" font-size="14" text-anchor="middle">descendant-or-self::node()</text></g><g id="edge27" class="edge"><title>pp1-&gt;dd1</title><path fill="none" stroke="#000" d="M324.621,-162.318C324.412,-159.788 324.291,-157.134 324.259,-154.461"/><polygon fill="#000" stroke="#000" points="327.763 -154.381 324.573 -144.277 320.766 -154.164 327.763 -154.381"/></g><g id="node22" class="node"><title>p1</title><ellipse cx="123" cy="-72" fill="none" stroke="#000" rx="27" ry="18"/><text x="123" y="-67.4" font-family="Times New Roman,serif" font-size="14" text-anchor="middle">path</text></g><g id="edge22" class="edge"><title>a1-&gt;p1</title><path fill="none" stroke="#000" d="M123,-107.718C123,-105.343 123,-102.867 123,-100.375"/><polygon fill="#000" stroke="#000" points="126.5 -100.263 123 -90.263 119.5 -100.263 126.5 -100.263"/></g><g id="edge67" class="edge"><title>a1-&gt;dd1</title><path fill="none" stroke="red" d="M205.063,-126C207.553,-126 210.043,-126 212.534,-126"/><polygon fill="red" stroke="red" points="212.772 -129.5 222.772 -126 212.772 -122.5 212.772 -129.5"/></g><g id="edge18" class="edge"><title>p1-&gt;c1</title><path fill="none" stroke="#000" d="M105.659,-57.8121C99.5103,-52.7811 92.4169,-46.9775 85.5812,-41.3846"/><polygon fill="#000" stroke="#000" points="87.703 -38.598 77.747 -34.975 83.27 -44.016 87.703 -38.598"/></g><g id="node26" class="node"><title>d1</title><ellipse cx="240" cy="-18" fill="none" stroke="#000" rx="108.172" ry="18"/><text x="240" y="-13.4" font-family="Times New Roman,serif" font-size="14" text-anchor="middle">descendant-or-self::node()</text></g><g id="edge20" class="edge"><title>p1-&gt;d1</title><path fill="none" stroke="#000" d="M143.246,-60.0156C155.795,-53.7818 172.404,-45.9822 188.342,-38.801"/><polygon fill="#000" stroke="#000" points="189.909 -41.934 197.612 -34.661 187.054 -35.543 189.909 -41.934"/></g><g id="edge63" class="edge"><title>c1-&gt;d1</title><path fill="none" stroke="red" d="M114.188,-18C116.675,-18 119.163,-18 121.651,-18"/><polygon fill="red" stroke="red" points="121.88 -21.5 131.88 -18 121.88 -14.5 121.88 -21.5"/></g><g id="edge65" class="edge"><title>d1-&gt;p1</title><path fill="none" stroke="red" d="M208.695,-35.3809C192.461,-43.1827 172.707,-52.2172 156.203,-59.3604"/><polygon fill="red" stroke="red" points="154.737 -56.181 146.913 -63.324 157.484 -62.619 154.737 -56.181"/></g><g id="edge69" class="edge"><title>dd1-&gt;pp1</title><path fill="none" stroke="red" d="M337.427,-144.277C337.622,-146.826 337.729,-149.491 337.747,-152.167"/><polygon fill="red" stroke="red" points="334.244 -152.198 337.379 -162.318 341.239 -152.452 334.244 -152.198"/></g><g id="node39" class="node"><title>lre2</title><ellipse cx="477" cy="-234" fill="none" stroke="#000" rx="27" ry="18"/><text x="477" y="-229.4" font-family="Times New Roman,serif" font-size="14" text-anchor="middle">&lt;p&gt;</text></g><g id="edge53" class="edge"><title>d7e33156-&gt;lre2</title><path fill="none" stroke="#000" d="M426.512,-274.094C434.067,-268.094 443.056,-260.956 451.341,-254.377"/><polygon fill="#000" stroke="#000" points="453.657 -257.007 459.311 -248.047 449.304 -251.525 453.657 -257.007"/></g><g id="edge81" class="edge"><title>lre2-&gt;T</title><path fill="none" stroke="red" d="M476.16,-252.162C473.845,-279.876 465.194,-332.405 433,-360 420.189,-370.981 403.806,-378.688 387.936,-384.068"/><polygon fill="red" stroke="red" points="386.657 -380.8 378.157 -387.124 388.746 -387.481 386.657 -380.8"/></g><g id="node41" class="node"><title>pp2</title><ellipse cx="477" cy="-180" fill="none" stroke="#000" rx="27" ry="18"/><text x="477" y="-175.4" font-family="Times New Roman,serif" font-size="14" text-anchor="middle">path</text></g><g id="edge49" class="edge"><title>lre2-&gt;pp2</title><path fill="none" stroke="#000" d="M477,-215.718C477,-213.343 477,-210.867 477,-208.375"/><polygon fill="#000" stroke="#000" points="480.5 -208.263 477 -198.263 473.5 -208.263 480.5 -208.263"/></g><g id="node55" class="node"><title>dd2</title><ellipse cx="630" cy="-180" fill="none" stroke="#000" rx="108.172" ry="18"/><text x="630" y="-175.4" font-family="Times New Roman,serif" font-size="14" text-anchor="middle">descendant-or-self::node()</text></g><g id="edge51" class="edge"><title>lre2-&gt;dd2</title><path fill="none" stroke="#000" d="M500.906,-225.563C520.506,-218.645 549.034,-208.576 574.29,-199.662"/><polygon fill="#000" stroke="#000" points="575.519 -202.94 583.784 -196.312 573.189 -196.339 575.519 -202.94"/></g><g id="node43" class="node"><title>a2</title><ellipse cx="539" cy="-126" fill="none" stroke="#000" rx="82.011" ry="18"/><text x="539" y="-121.4" font-family="Times New Roman,serif" font-size="14" text-anchor="middle">xsl:apply-templates</text></g><g id="edge46" class="edge"><title>pp2-&gt;a2</title><path fill="none" stroke="#000" d="M493.615,-165.529C498.941,-160.89 504.996,-155.616 510.908,-150.467"/><polygon fill="#000" stroke="#000" points="513.559 -152.8 518.801 -143.593 508.961 -147.521 513.559 -152.8"/></g><g id="node45" class="node"><title>p2</title><ellipse cx="539" cy="-72" fill="none" stroke="#000" rx="27" ry="18"/><text x="539" y="-67.4" font-family="Times New Roman,serif" font-size="14" text-anchor="middle">path</text></g><g id="edge44" class="edge"><title>a2-&gt;p2</title><path fill="none" stroke="#000" d="M539,-107.718C539,-105.343 539,-102.867 539,-100.375"/><polygon fill="#000" stroke="#000" points="542.5 -100.263 539 -90.263 535.5 -100.263 542.5 -100.263"/></g><g id="edge75" class="edge"><title>a2-&gt;dd2</title><path fill="none" stroke="red" d="M567.617,-142.982C575.358,-147.575 583.858,-152.619 592.026,-157.466"/><polygon fill="red" stroke="red" points="590.32 -160.524 600.706 -162.617 593.892 -154.504 590.32 -160.524"/></g><g id="edge40" class="edge"><title>p2-&gt;c2</title><path fill="none" stroke="#000" d="M523.151,-57.2443C518.17,-52.607 512.533,-47.3584 507.039,-42.2431"/><polygon fill="#000" stroke="#000" points="509.415 -39.673 499.711 -35.42 504.645 -44.796 509.415 -39.673"/></g><g id="node49" class="node"><title>d2</title><ellipse cx="664" cy="-18" fill="none" stroke="#000" rx="108.172" ry="18"/><text x="664" y="-13.4" font-family="Times New Roman,serif" font-size="14" text-anchor="middle">descendant-or-self::node()</text></g><g id="edge42" class="edge"><title>p2-&gt;d2</title><path fill="none" stroke="#000" d="M559.873,-60.548C573.594,-54.1742 592.093,-46.0469 609.72,-38.6068"/><polygon fill="#000" stroke="#000" points="611.515 -41.65 619.388 -34.56 608.812 -35.193 611.515 -41.65"/></g><g id="edge71" class="edge"><title>c2-&gt;d2</title><path fill="none" stroke="red" d="M538.188,-18C540.675,-18 543.163,-18 545.651,-18"/><polygon fill="red" stroke="red" points="545.88 -21.5 555.88 -18 545.88 -14.5 545.88 -21.5"/></g><g id="edge73" class="edge"><title>d2-&gt;p2</title><path fill="none" stroke="red" d="M630.612,-35.1601C612.713,-43.1984 590.789,-52.5845 572.819,-59.8708"/><polygon fill="red" stroke="red" points="571.278 -56.717 563.293 -63.681 573.878 -63.217 571.278 -56.717"/></g><g id="edge77" class="edge"><title>dd2-&gt;pp2</title><path fill="none" stroke="red" d="M521.885,-180C519.397,-180 516.909,-180 514.421,-180"/><polygon fill="red" stroke="red" points="514.193 -176.5 504.193 -180 514.193 -183.5 514.193 -176.5"/></g></g></svg>