<svg xmlns="http://www.w3.org/2000/svg" xmlns:xlink="http://www.w3.org/1999/xlink" width="172pt" height="260pt" viewBox="0 0 172 260"><g id="graph1" class="graph" transform="scale(1 1) rotate(0) translate(4 256)"><title>g</title><polygon fill="#fff" stroke="#fff" points="-4 5 -4 -256 169 -256 169 5 -4 5"/><g id="node2" class="node"><title>d7e33069</title><ellipse cx="80" cy="-234" fill="none" stroke="#000" rx="47.801" ry="18"/><text x="80" y="-229.4" font-family="Times New Roman,serif" font-size="14" text-anchor="middle">xsl:stream</text></g><g id="node4" class="node"><title>d7e33070</title><ellipse cx="80" cy="-180" fill="none" stroke="#000" rx="61.887" ry="18"/><text x="80" y="-175.4" font-family="Times New Roman,serif" font-size="14" text-anchor="middle">child::account</text></g><g id="edge16" class="edge"><title>d7e33069-&gt;d7e33070</title><path fill="none" stroke="red" d="M80,-215.718C80,-213.343 80,-210.867 80,-208.375"/><polygon fill="red" stroke="red" points="83.5 -208.263 80 -198.263 76.5 -208.263 83.5 -208.263"/></g><g id="node6" class="node"><title>d7e33071</title><ellipse cx="80" cy="-126" fill="none" stroke="#000" rx="73.79" ry="18"/><text x="80" y="-121.4" font-family="Times New Roman,serif" font-size="14" text-anchor="middle">child::transaction</text></g><g id="edge14" class="edge"><title>d7e33070-&gt;d7e33071</title><path fill="none" stroke="red" d="M80,-161.718C80,-159.343 80,-156.867 80,-154.375"/><polygon fill="red" stroke="red" points="83.5 -154.263 80 -144.263 76.5 -154.263 83.5 -154.263"/></g><g id="node8" class="node"><title>d7e33072</title><ellipse cx="80" cy="-72" fill="none" stroke="#000" rx="27" ry="18"/><text x="80" y="-67.4" font-family="Times New Roman,serif" font-size="14" text-anchor="middle">path</text></g><g id="edge12" class="edge"><title>d7e33071-&gt;d7e33072</title><path fill="none" stroke="red" d="M80,-107.718C80,-105.343 80,-102.867 80,-100.375"/><polygon fill="red" stroke="red" points="83.5 -100.263 80 -90.263 76.5 -100.263 83.5 -100.263"/></g><g id="node10" class="node"><title>d7e33073</title><ellipse cx="35" cy="-18" fill="none" stroke="#000" rx="34.883" ry="18"/><text x="35" y="-13.4" font-family="Times New Roman,serif" font-size="14" text-anchor="middle">@date</text></g><g id="edge8" class="edge"><title>d7e33072-&gt;d7e33073</title><path fill="none" stroke="red" d="M66.7419,-56.0903C63.242,-51.8903 59.3809,-47.2571 55.5925,-42.711"/><polygon fill="red" stroke="red" points="58.036 -40.176 48.946 -34.735 52.659 -44.657 58.036 -40.176"/></g><g id="node12" class="node"><title>d7e33074</title><ellipse cx="126" cy="-18" fill="none" stroke="#000" rx="38.237" ry="18"/><text x="126" y="-13.4" font-family="Times New Roman,serif" font-size="14" text-anchor="middle">@value</text></g><g id="edge10" class="edge"><title>d7e33072-&gt;d7e33074</title><path fill="none" stroke="red" d="M93.5527,-56.0903C97.2199,-51.7853 101.275,-47.0251 105.24,-42.3702"/><polygon fill="red" stroke="red" points="107.924 -44.617 111.745 -34.735 102.596 -40.077 107.924 -44.617"/></g></g></svg>