<svg xmlns="http://www.w3.org/2000/svg" xmlns:xlink="http://www.w3.org/1999/xlink" width="938pt" height="368pt" viewBox="0 0 938 368"><g id="graph1" class="graph" transform="scale(1 1) rotate(0) translate(4 364)"><title>g</title><polygon fill="#fff" stroke="#fff" points="-4 5 -4 -364 935 -364 935 5 -4 5"/><g id="node2" class="node"><title>stream</title><ellipse cx="331" cy="-342" fill="none" stroke="#000" rx="47.801" ry="18"/><text x="331" y="-337.4" font-family="Times New Roman,serif" font-size="14" text-anchor="middle">xsl:stream</text></g><g id="node4" class="node"><title>XI</title><ellipse cx="331" cy="-288" fill="none" stroke="#000" rx="45.114" ry="18"/><text x="331" y="-283.4" font-family="Times New Roman,serif" font-size="14" text-anchor="middle">xsl:iterate</text></g><g id="edge64" class="edge"><title>stream-&gt;XI</title><path fill="none" stroke="#000" d="M324.596,-324.019C324.396,-321.495 324.282,-318.853 324.256,-316.195"/><polygon fill="#000" stroke="#000" points="327.758 -316.196 324.588 -306.087 320.761 -315.966 327.758 -316.196"/></g><g id="node10" class="node"><title>ca</title><ellipse cx="702" cy="-126" fill="none" stroke="#000" rx="61.887" ry="18"/><text x="702" y="-121.4" font-family="Times New Roman,serif" font-size="14" text-anchor="middle">child::account</text></g><g id="edge66" class="edge"><title>stream-&gt;ca</title><path fill="none" stroke="red" d="M373.637,-333.684C469.565,-313.979 697.199,-261.32 738,-198 746.666,-184.55 744.123,-176.782 738,-162 736.326,-157.958 733.953,-154.133 731.214,-150.592"/><polygon fill="red" stroke="red" points="733.592 -148 724.317 -142.878 728.373 -152.666 733.592 -148"/></g><g id="edge80" class="edge"><title>XI-&gt;stream</title><path fill="none" stroke="red" d="M337.412,-306.087C337.61,-308.614 337.721,-311.258 337.745,-313.916"/><polygon fill="red" stroke="red" points="334.244 -313.906 337.404 -324.019 341.24 -314.143 334.244 -313.906"/></g><g id="node6" class="node"><title>d7e33035</title><ellipse cx="578" cy="-234" fill="none" stroke="#000" rx="32.199" ry="18"/><text x="578" y="-229.4" font-family="Times New Roman,serif" font-size="14" text-anchor="middle">select</text></g><g id="edge58" class="edge"><title>XI-&gt;d7e33035</title><path fill="none" stroke="#000" d="M370.685,-279.324C416.706,-269.263 492.129,-252.773 538.2,-242.701"/><polygon fill="#000" stroke="#000" points="539.102 -246.087 548.123 -240.532 537.607 -239.248 539.102 -246.087"/></g><g id="node17" class="node"><title>d7e33039</title><ellipse cx="92" cy="-234" fill="none" stroke="#000" rx="91.902" ry="18"/><text x="92" y="-229.4" font-family="Times New Roman,serif" font-size="14" text-anchor="middle">xsl:param $balance :=</text></g><g id="edge60" class="edge"><title>XI-&gt;d7e33039</title><path fill="none" stroke="#000" d="M291.802,-279.143C256.738,-271.221 204.507,-259.42 162.241,-249.87"/><polygon fill="#000" stroke="#000" points="162.808 -246.41 152.282 -247.62 161.265 -253.238 162.808 -246.41"/></g><g id="node22" class="node"><title>SC</title><ellipse cx="331" cy="-234" fill="none" stroke="#000" rx="91.232" ry="18"/><text x="331" y="-229.4" font-family="Times New Roman,serif" font-size="14" text-anchor="middle">sequence constructor</text></g><g id="edge62" class="edge"><title>XI-&gt;SC</title><path fill="none" stroke="#000" d="M324.596,-270.019C324.396,-267.495 324.282,-264.853 324.256,-262.195"/><polygon fill="#000" stroke="#000" points="327.758 -262.196 324.588 -252.087 320.761 -261.966 327.758 -262.196"/></g><g id="node8" class="node"><title>p1</title><ellipse cx="702" cy="-180" fill="none" stroke="#000" rx="27" ry="18"/><text x="702" y="-175.4" font-family="Times New Roman,serif" font-size="14" text-anchor="middle">path</text></g><g id="edge12" class="edge"><title>d7e33035-&gt;p1</title><path fill="none" stroke="#000" d="M603.392,-222.942C622.599,-214.578 649.108,-203.033 669.804,-194.021"/><polygon fill="#000" stroke="#000" points="671.376 -197.154 679.147 -189.952 668.581 -190.736 671.376 -197.154"/></g><g id="edge8" class="edge"><title>p1-&gt;ca</title><path fill="none" stroke="#000" d="M702,-161.718C702,-159.343 702,-156.867 702,-154.375"/><polygon fill="#000" stroke="#000" points="705.5 -154.263 702 -144.263 698.5 -154.263 705.5 -154.263"/></g><g id="node12" class="node"><title>ct</title><ellipse cx="856" cy="-126" fill="none" stroke="#000" rx="73.79" ry="18"/><text x="856" y="-121.4" font-family="Times New Roman,serif" font-size="14" text-anchor="middle">child::transaction</text></g><g id="edge10" class="edge"><title>p1-&gt;ct</title><path fill="none" stroke="#000" d="M724.882,-170.096C744.717,-162.644 774.053,-152.241 799.991,-143.411"/><polygon fill="#000" stroke="#000" points="801.387 -146.633 809.738 -140.113 799.144 -140.002 801.387 -146.633"/></g><g id="node32" class="node"><title>av</title><ellipse cx="268" cy="-18" fill="none" stroke="#000" rx="38.237" ry="18"/><text x="268" y="-13.4" font-family="Times New Roman,serif" font-size="14" text-anchor="middle">@value</text></g><g id="edge74" class="edge"><title>p1-&gt;av</title><path fill="none" stroke="red" d="M675.266,-177.169C609.6,-170.131 443.981,-151.851 420,-144 388.615,-133.725 386.7,-117.257 355,-108 324.223,-99.0129 88.9531,-113.368 67,-90 20.0108,-39.9823 146.121,-24.6528 219.531,-19.9987"/><polygon fill="red" stroke="red" points="220.175 -23.467 229.952 -19.387 219.764 -16.479 220.175 -23.467"/></g><g id="node42" class="node"><title>ad</title><ellipse cx="481" cy="-72" fill="none" stroke="#000" rx="34.883" ry="18"/><text x="481" y="-67.4" font-family="Times New Roman,serif" font-size="14" text-anchor="middle">@date</text></g><g id="edge72" class="edge"><title>p1-&gt;ad</title><path fill="none" stroke="red" d="M674.993,-176.885C607.212,-169.007 435.017,-148.585 431,-144 420.457,-131.964 423.706,-122.24 431,-108 434.635,-100.904 440.391,-94.8891 446.725,-89.9264"/><polygon fill="red" stroke="red" points="448.738 -92.79 454.942 -84.201 444.737 -87.046 448.738 -92.79"/></g><g id="edge68" class="edge"><title>ca-&gt;ct</title><path fill="none" stroke="red" d="M764.262,-126C766.731,-126 769.2,-126 771.67,-126"/><polygon fill="red" stroke="red" points="771.821 -129.5 781.821 -126 771.821 -122.5 771.821 -129.5"/></g><g id="edge70" class="edge"><title>ct-&gt;p1</title><path fill="none" stroke="red" d="M818.047,-141.472C793.04,-150.582 760.659,-161.848 736.392,-169.838"/><polygon fill="red" stroke="red" points="735.289 -166.516 726.864 -172.94 737.456 -173.173 735.289 -166.516"/></g><g id="node19" class="node"><title>d7e33040</title><ellipse cx="54" cy="-180" fill="none" stroke="#000" rx="27" ry="18"/><text x="54" y="-175.4" font-family="Times New Roman,serif" font-size="14" text-anchor="middle">0.0</text></g><g id="edge16" class="edge"><title>d7e33039-&gt;d7e33040</title><path fill="none" stroke="#000" d="M79.3466,-216.019C76.8691,-212.498 74.2289,-208.746 71.6235,-205.044"/><polygon fill="#000" stroke="#000" points="74.317 -202.79 65.7 -196.626 68.593 -206.819 74.317 -202.79"/></g><g id="edge78" class="edge"><title>SC-&gt;XI</title><path fill="none" stroke="red" d="M337.412,-252.087C337.61,-254.614 337.721,-257.258 337.745,-259.916"/><polygon fill="red" stroke="red" points="334.244 -259.906 337.404 -270.019 341.24 -260.143 334.244 -259.906"/></g><g id="node24" class="node"><title>d7e33042</title><ellipse cx="331" cy="-180" fill="none" stroke="#000" rx="69.765" ry="18"/><text x="331" y="-175.4" font-family="Times New Roman,serif" font-size="14" text-anchor="middle">$newBalance :=</text></g><g id="edge52" class="edge"><title>SC-&gt;d7e33042</title><path fill="none" stroke="#000" d="M331,-215.718C331,-213.343 331,-210.867 331,-208.375"/><polygon fill="#000" stroke="#000" points="334.5 -208.263 331 -198.263 327.5 -208.263 334.5 -208.263"/></g><g id="node38" class="node"><title>B</title><ellipse cx="481" cy="-180" fill="none" stroke="#000" rx="49.813" ry="18"/><text x="481" y="-175.4" font-family="Times New Roman,serif" font-size="14" text-anchor="middle">&lt;balance&gt;</text></g><g id="edge54" class="edge"><title>SC-&gt;B</title><path fill="none" stroke="#000" d="M370.152,-217.652C389.319,-210.502 412.516,-202.166 432.759,-195.158"/><polygon fill="#000" stroke="#000" points="434.109 -198.395 442.428 -191.835 431.834 -191.775 434.109 -198.395"/></g><g id="node52" class="node"><title>d7e33052</title><ellipse cx="171" cy="-180" fill="none" stroke="#000" rx="71.778" ry="18"/><text x="171" y="-175.4" font-family="Times New Roman,serif" font-size="14" text-anchor="middle">xsl:next-iteration</text></g><g id="edge56" class="edge"><title>SC-&gt;d7e33052</title><path fill="none" stroke="#000" d="M284.721,-218.381C265.527,-211.903 243.163,-204.355 223.371,-197.675"/><polygon fill="#000" stroke="#000" points="224.481 -194.356 213.887 -194.474 222.243 -200.988 224.481 -194.356"/></g><g id="node26" class="node"><title>d7e33043</title><ellipse cx="319" cy="-126" fill="none" stroke="#000" rx="27" ry="18"/><text x="319" y="-121.4" font-family="Times New Roman,serif" font-size="14" text-anchor="middle">plus</text></g><g id="edge30" class="edge"><title>d7e33042-&gt;d7e33043</title><path fill="none" stroke="#000" d="M327.004,-162.019C326.423,-159.405 325.814,-156.664 325.202,-153.91"/><polygon fill="#000" stroke="#000" points="328.605 -153.089 323.019 -144.087 321.772 -154.608 328.605 -153.089"/></g><g id="node28" class="node"><title>d7e33044</title><ellipse cx="385" cy="-72" fill="none" stroke="#000" rx="43.102" ry="18"/><text x="385" y="-67.4" font-family="Times New Roman,serif" font-size="14" text-anchor="middle">$balance</text></g><g id="edge26" class="edge"><title>d7e33043-&gt;d7e33044</title><path fill="none" stroke="#000" d="M336.341,-111.812C342.709,-106.601 350.091,-100.562 357.15,-94.7862"/><polygon fill="#000" stroke="#000" points="359.686 -97.234 365.209 -88.193 355.253 -91.816 359.686 -97.234"/></g><g id="node30" class="node"><title>d7e33045</title><ellipse cx="268" cy="-72" fill="none" stroke="#000" rx="55.85" ry="18"/><text x="268" y="-67.4" font-family="Times New Roman,serif" font-size="14" text-anchor="middle">xs:decimal()</text></g><g id="edge28" class="edge"><title>d7e33043-&gt;d7e33045</title><path fill="none" stroke="#000" d="M304.522,-110.67C300.425,-106.332 295.858,-101.496 291.378,-96.7536"/><polygon fill="#000" stroke="#000" points="293.903 -94.329 284.492 -89.462 288.814 -99.136 293.903 -94.329"/></g><g id="edge24" class="edge"><title>d7e33045-&gt;av</title><path fill="none" stroke="#000" d="M268,-53.7181C268,-51.3429 268,-48.867 268,-46.3754"/><polygon fill="#000" stroke="#000" points="271.5 -46.263 268 -36.263 264.5 -46.263 271.5 -46.263"/></g><g id="edge76" class="edge"><title>B-&gt;SC</title><path fill="none" stroke="red" d="M448.4,-193.891C431.126,-200.406 409.449,-208.266 389.415,-215.296"/><polygon fill="red" stroke="red" points="388.028 -212.073 379.738 -218.67 390.333 -218.682 388.028 -212.073"/></g><g id="node40" class="node"><title>d7e33048</title><ellipse cx="481" cy="-126" fill="none" stroke="#000" rx="40.92" ry="18"/><text x="481" y="-121.4" font-family="Times New Roman,serif" font-size="14" text-anchor="middle">attribute</text></g><g id="edge41" class="edge"><title>B-&gt;d7e33048</title><path fill="none" stroke="#000" d="M481,-161.718C481,-159.343 481,-156.867 481,-154.375"/><polygon fill="#000" stroke="#000" points="484.5 -154.263 481 -144.263 477.5 -154.263 484.5 -154.263"/></g><g id="node45" class="node"><title>d7e33050</title><ellipse cx="581" cy="-126" fill="none" stroke="#000" rx="40.92" ry="18"/><text x="581" y="-121.4" font-family="Times New Roman,serif" font-size="14" text-anchor="middle">attribute</text></g><g id="edge43" class="edge"><title>B-&gt;d7e33050</title><path fill="none" stroke="#000" d="M508.856,-164.958C520.369,-158.741 533.845,-151.464 546.013,-144.893"/><polygon fill="#000" stroke="#000" points="547.874 -147.866 555.01 -140.035 544.548 -141.707 547.874 -147.866"/></g><g id="edge35" class="edge"><title>d7e33048-&gt;ad</title><path fill="none" stroke="#000" d="M481,-107.718C481,-105.343 481,-102.867 481,-100.375"/><polygon fill="#000" stroke="#000" points="484.5 -100.263 481 -90.263 477.5 -100.263 484.5 -100.263"/></g><g id="node47" class="node"><title>d7e33051</title><ellipse cx="593" cy="-72" fill="none" stroke="#000" rx="59.201" ry="18"/><text x="593" y="-67.4" font-family="Times New Roman,serif" font-size="14" text-anchor="middle">$newBalance</text></g><g id="edge39" class="edge"><title>d7e33050-&gt;d7e33051</title><path fill="none" stroke="#000" d="M584.996,-108.019C585.577,-105.405 586.186,-102.664 586.798,-99.9105"/><polygon fill="#000" stroke="#000" points="590.228 -100.608 588.981 -90.087 583.395 -99.089 590.228 -100.608"/></g><g id="node54" class="node"><title>d7e33053</title><ellipse cx="153" cy="-126" fill="none" stroke="#000" rx="55.85" ry="18"/><text x="153" y="-121.4" font-family="Times New Roman,serif" font-size="14" text-anchor="middle">with-params</text></g><g id="edge50" class="edge"><title>d7e33052-&gt;d7e33053</title><path fill="none" stroke="#000" d="M165.006,-162.019C164.105,-159.315 163.158,-156.475 162.209,-153.626"/><polygon fill="#000" stroke="#000" points="165.512 -152.467 159.029 -144.087 158.871 -154.68 165.512 -152.467"/></g><g id="node56" class="node"><title>d7e33054</title><ellipse cx="135" cy="-72" fill="none" stroke="#000" rx="59.201" ry="18"/><text x="135" y="-67.4" font-family="Times New Roman,serif" font-size="14" text-anchor="middle">$newBalance</text></g><g id="edge48" class="edge"><title>d7e33053-&gt;d7e33054</title><path fill="none" stroke="#000" d="M147.006,-108.019C146.105,-105.315 145.158,-102.475 144.209,-99.6256"/><polygon fill="#000" stroke="#000" points="147.512 -98.467 141.029 -90.087 140.871 -100.68 147.512 -98.467"/></g></g></svg>