<svg xmlns="http://www.w3.org/2000/svg" xmlns:xlink="http://www.w3.org/1999/xlink" width="424" height="422pt" viewBox="0 0 318 422"><g id="graph1" class="graph" transform="scale(1 1) rotate(0) translate(4 418)"><title>g</title><polygon fill="#fff" stroke="#fff" points="-4 5 -4 -418 315 -418 315 5 -4 5"/><g id="node2" class="node"><title>d7e33344</title><ellipse cx="202" cy="-396" fill="none" stroke="#000" rx="47.801" ry="18"/><text x="202" y="-391.4" font-family="Times New Roman,serif" font-size="14" text-anchor="middle">xsl:stream</text></g><g id="node4" class="node"><title>d7e33345</title><ellipse cx="202" cy="-342" fill="none" stroke="#000" rx="61.887" ry="18"/><text x="202" y="-337.4" font-family="Times New Roman,serif" font-size="14" text-anchor="middle">child::account</text></g><g id="edge46" class="edge"><title>d7e33344-&gt;d7e33345</title><path fill="none" stroke="red" d="M202,-377.718C202,-375.343 202,-372.867 202,-370.375"/><polygon fill="red" stroke="red" points="205.5 -370.263 202 -360.263 198.5 -370.263 205.5 -370.263"/></g><g id="node6" class="node"><title>d7e33346</title><ellipse cx="202" cy="-288" fill="none" stroke="#000" rx="73.79" ry="18"/><text x="202" y="-283.4" font-family="Times New Roman,serif" font-size="14" text-anchor="middle">child::transaction</text></g><g id="edge44" class="edge"><title>d7e33345-&gt;d7e33346</title><path fill="none" stroke="red" d="M202,-323.718C202,-321.343 202,-318.867 202,-316.375"/><polygon fill="red" stroke="red" points="205.5 -316.263 202 -306.263 198.5 -316.263 205.5 -316.263"/></g><g id="node8" class="node"><title>d7e33347</title><ellipse cx="156" cy="-234" fill="none" stroke="#000" rx="27" ry="18"/><text x="156" y="-229.4" font-family="Times New Roman,serif" font-size="14" text-anchor="middle">path</text></g><g id="edge40" class="edge"><title>d7e33346-&gt;d7e33347</title><path fill="none" stroke="red" d="M186.938,-270.318C183.489,-266.27 179.769,-261.902 176.145,-257.648"/><polygon fill="red" stroke="red" points="178.539 -255.062 169.39 -249.719 173.21 -259.601 178.539 -255.062"/></g><g id="node31" class="node"><title>d7e33355</title><ellipse cx="248" cy="-234" fill="none" stroke="#000" rx="42.932" ry="18"/><text x="248" y="-229.4" font-family="Times New Roman,serif" font-size="14" text-anchor="middle">current()</text></g><g id="edge42" class="edge"><title>d7e33346-&gt;d7e33355</title><path fill="none" stroke="red" d="M217.062,-270.318C220.174,-266.666 223.506,-262.754 226.79,-258.899"/><polygon fill="red" stroke="red" points="229.554 -261.052 233.374 -251.169 224.225 -256.512 229.554 -261.052"/></g><g id="node10" class="node"><title>d7e33348</title><ellipse cx="149" cy="-180" fill="none" stroke="#000" rx="27" ry="18"/><text x="149" y="-175.4" font-family="Times New Roman,serif" font-size="14" text-anchor="middle">.</text></g><g id="edge25" class="edge"><title>d7e33347-&gt;d7e33348</title><path fill="none" stroke="red" d="M153.669,-216.019C153.342,-213.495 152.999,-210.853 152.655,-208.195"/><polygon fill="red" stroke="red" points="156.101 -207.554 151.345 -198.087 149.159 -208.454 156.101 -207.554"/></g><g id="node12" class="node"><title>d7e33349</title><ellipse cx="60" cy="-126" fill="none" stroke="#000" rx="59.875" ry="18"/><text x="60" y="-121.4" font-family="Times New Roman,serif" font-size="14" text-anchor="middle">child::amount</text></g><g id="edge21" class="edge"><title>d7e33348-&gt;d7e33349</title><path fill="none" stroke="red" d="M128.805,-167.747C119.011,-161.805 106.952,-154.488 95.6802,-147.649"/><polygon fill="red" stroke="red" points="97.232 -144.496 86.867 -142.301 93.601 -150.481 97.232 -144.496"/></g><g id="node20" class="node"><title>d7e33352</title><ellipse cx="165" cy="-126" fill="none" stroke="#000" rx="27.004" ry="18"/><text x="165" y="-121.4" font-family="Times New Roman,serif" font-size="14" text-anchor="middle">filter</text></g><g id="edge23" class="edge"><title>d7e33348-&gt;d7e33352</title><path fill="none" stroke="red" d="M154.239,-162.318C155.059,-159.55 155.924,-156.633 156.791,-153.704"/><polygon fill="red" stroke="red" points="160.209 -154.489 159.694 -143.906 153.498 -152.5 160.209 -154.489"/></g><g id="node14" class="node"><title>d7e33350</title><ellipse cx="60" cy="-72" fill="none" stroke="#000" rx="27" ry="18"/><text x="60" y="-67.4" font-family="Times New Roman,serif" font-size="14" text-anchor="middle">//</text></g><g id="edge12" class="edge"><title>d7e33349-&gt;d7e33350</title><path fill="none" stroke="red" d="M60,-107.718C60,-105.343 60,-102.867 60,-100.375"/><polygon fill="red" stroke="red" points="63.5 -100.263 60 -90.263 56.5 -100.263 63.5 -100.263"/></g><g id="node16" class="node"><title>d7e33351</title><ellipse cx="60" cy="-18" fill="none" stroke="#000" rx="27" ry="18"/><text x="60" y="-13.4" font-family="Times New Roman,serif" font-size="14" text-anchor="middle">path</text></g><g id="edge10" class="edge"><title>d7e33350-&gt;d7e33351</title><path fill="none" stroke="red" d="M60,-53.7181C60,-51.3429 60,-48.867 60,-46.3754"/><polygon fill="red" stroke="red" points="63.5 -46.263 60 -36.263 56.5 -46.263 63.5 -46.263"/></g><g id="node22" class="node"><title>d7e33353</title><ellipse cx="165" cy="-72" fill="none" stroke="#000" rx="27" ry="18"/><text x="165" y="-67.4" font-family="Times New Roman,serif" font-size="14" text-anchor="middle">//</text></g><g id="edge19" class="edge"><title>d7e33352-&gt;d7e33353</title><path fill="none" stroke="red" d="M165,-107.718C165,-105.343 165,-102.867 165,-100.375"/><polygon fill="red" stroke="red" points="168.5 -100.263 165 -90.263 161.5 -100.263 168.5 -100.263"/></g><g id="node24" class="node"><title>d7e33354</title><ellipse cx="165" cy="-18" fill="none" stroke="#000" rx="27" ry="18"/><text x="165" y="-13.4" font-family="Times New Roman,serif" font-size="14" text-anchor="middle">path</text></g><g id="edge17" class="edge"><title>d7e33353-&gt;d7e33354</title><path fill="none" stroke="red" d="M165,-53.7181C165,-51.3429 165,-48.867 165,-46.3754"/><polygon fill="red" stroke="red" points="168.5 -46.263 165 -36.263 161.5 -46.263 168.5 -46.263"/></g><g id="node33" class="node"><title>d7e33356</title><ellipse cx="252" cy="-180" fill="none" stroke="#000" rx="57.863" ry="18"/><text x="252" y="-175.4" font-family="Times New Roman,serif" font-size="14" text-anchor="middle">child::branch</text></g><g id="edge38" class="edge"><title>d7e33355-&gt;d7e33356</title><path fill="none" stroke="red" d="M249.354,-215.718C249.53,-213.343 249.714,-210.867 249.898,-208.375"/><polygon fill="red" stroke="red" points="253.399 -208.494 250.647 -198.263 246.418 -207.977 253.399 -208.494"/></g><g id="node35" class="node"><title>d7e33357</title><ellipse cx="252" cy="-126" fill="none" stroke="#000" rx="27" ry="18"/><text x="252" y="-121.4" font-family="Times New Roman,serif" font-size="14" text-anchor="middle">//</text></g><g id="edge36" class="edge"><title>d7e33356-&gt;d7e33357</title><path fill="none" stroke="red" d="M252,-161.718C252,-159.343 252,-156.867 252,-154.375"/><polygon fill="red" stroke="red" points="255.5 -154.263 252 -144.263 248.5 -154.263 255.5 -154.263"/></g><g id="node37" class="node"><title>d7e33358</title><ellipse cx="252" cy="-72" fill="none" stroke="#000" rx="27" ry="18"/><text x="252" y="-67.4" font-family="Times New Roman,serif" font-size="14" text-anchor="middle">path</text></g><g id="edge34" class="edge"><title>d7e33357-&gt;d7e33358</title><path fill="none" stroke="red" d="M252,-107.718C252,-105.343 252,-102.867 252,-100.375"/><polygon fill="red" stroke="red" points="255.5 -100.263 252 -90.263 248.5 -100.263 255.5 -100.263"/></g><g id="node39" class="node"><title>d7e33359</title><ellipse cx="252" cy="-18" fill="none" stroke="#000" rx="27" ry="18"/><text x="252" y="-13.4" font-family="Times New Roman,serif" font-size="14" text-anchor="middle">path</text></g><g id="edge32" class="edge"><title>d7e33358-&gt;d7e33359</title><path fill="none" stroke="red" d="M252,-53.7181C252,-51.3429 252,-48.867 252,-46.3754"/><polygon fill="red" stroke="red" points="255.5 -46.263 252 -36.263 248.5 -46.263 255.5 -46.263"/></g></g></svg>