<svg xmlns="http://www.w3.org/2000/svg" xmlns:xlink="http://www.w3.org/1999/xlink" width="422pt" height="260pt" viewBox="0 0 422 260"><g id="graph1" class="graph" transform="scale(1 1) rotate(0) translate(4 256)"><title>g</title><polygon fill="#fff" stroke="#fff" points="-4 5 -4 -256 419 -256 419 5 -4 5"/><g id="node2" class="node"><title>d7e29963</title><ellipse cx="272" cy="-234" fill="none" stroke="#000" rx="47.801" ry="18"/><text x="272" y="-229.4" font-family="Times New Roman,serif" font-size="14" text-anchor="middle">xsl:stream</text></g><g id="node4" class="node"><title>d7e29964</title><ellipse cx="272" cy="-180" fill="none" stroke="#000" rx="55.85" ry="18"/><text x="272" y="-175.4" font-family="Times New Roman,serif" font-size="14" text-anchor="middle">&lt;inventory&gt;</text></g><g id="edge22" class="edge"><title>d7e29963-&gt;d7e29964</title><path fill="none" stroke="#000" d="M272,-215.718C272,-213.343 272,-210.867 272,-208.375"/><polygon fill="#000" stroke="#000" points="275.5 -208.263 272 -198.263 268.5 -208.263 275.5 -208.263"/></g><g id="node6" class="node"><title>d7e29965</title><ellipse cx="207" cy="-126" fill="none" stroke="#000" rx="59.875" ry="18"/><text x="207" y="-121.4" font-family="Times New Roman,serif" font-size="14" text-anchor="middle">format-date()</text></g><g id="edge18" class="edge"><title>d7e29964-&gt;d7e29965</title><path fill="none" stroke="#000" d="M251.79,-163.21C246.582,-158.883 240.88,-154.146 235.342,-149.545"/><polygon fill="#000" stroke="#000" points="237.35 -146.664 227.421 -142.966 232.877 -152.048 237.35 -146.664"/></g><g id="node14" class="node"><title>d7e29968</title><ellipse cx="338" cy="-126" fill="none" stroke="#000" rx="53.164" ry="18"/><text x="338" y="-121.4" font-family="Times New Roman,serif" font-size="14" text-anchor="middle">xsl:value-of</text></g><g id="edge20" class="edge"><title>d7e29964-&gt;d7e29968</title><path fill="none" stroke="#000" d="M292.521,-163.21C297.809,-158.883 303.599,-154.146 309.222,-149.545"/><polygon fill="#000" stroke="#000" points="311.741 -152.007 317.264 -142.966 307.308 -146.589 311.741 -152.007"/></g><g id="node8" class="node"><title>d7e29966</title><ellipse cx="61" cy="-72" fill="none" stroke="#000" rx="61.214" ry="18"/><text x="61" y="-67.4" font-family="Times New Roman,serif" font-size="14" text-anchor="middle">current-date()</text></g><g id="edge7" class="edge"><title>d7e29965-&gt;d7e29966</title><path fill="none" stroke="#000" d="M169.021,-111.953C150.662,-105.163 128.431,-96.9401 108.92,-89.7238"/><polygon fill="#000" stroke="#000" points="109.889 -86.35 99.296 -86.164 107.461 -92.916 109.889 -86.35"/></g><g id="node10" class="node"><title>d7e29967</title><ellipse cx="210" cy="-72" fill="none" stroke="#000" rx="69.937" ry="18"/><text x="210" y="-67.4" font-family="Times New Roman,serif" font-size="14" text-anchor="middle">&apos;[D] [MNn] [Y]&apos;</text></g><g id="edge9" class="edge"><title>d7e29965-&gt;d7e29967</title><path fill="none" stroke="#000" d="M208.016,-107.718C208.148,-105.343 208.285,-102.867 208.424,-100.375"/><polygon fill="#000" stroke="#000" points="211.925 -100.442 208.985 -90.263 204.936 -100.054 211.925 -100.442"/></g><g id="node16" class="node"><title>d7e29969</title><ellipse cx="338" cy="-72" fill="none" stroke="#000" rx="38.237" ry="18"/><text x="338" y="-67.4" font-family="Times New Roman,serif" font-size="14" text-anchor="middle">count()</text></g><g id="edge16" class="edge"><title>d7e29968-&gt;d7e29969</title><path fill="none" stroke="#000" d="M338,-107.718C338,-105.343 338,-102.867 338,-100.375"/><polygon fill="#000" stroke="#000" points="341.5 -100.263 338 -90.263 334.5 -100.263 341.5 -100.263"/></g><g id="node18" class="node"><title>d7e29970</title><ellipse cx="338" cy="-18" fill="none" stroke="#000" rx="75.974" ry="18"/><text x="338" y="-13.4" font-family="Times New Roman,serif" font-size="14" text-anchor="middle">descendant::book</text></g><g id="edge14" class="edge"><title>d7e29969-&gt;d7e29970</title><path fill="none" stroke="#000" d="M338,-53.7181C338,-51.3429 338,-48.867 338,-46.3754"/><polygon fill="#000" stroke="#000" points="341.5 -46.263 338 -36.263 334.5 -46.263 341.5 -46.263"/></g></g></svg>