<svg xmlns="http://www.w3.org/2000/svg" xmlns:xlink="http://www.w3.org/1999/xlink" width="484pt" height="368pt" viewBox="0 0 484 368"><g id="graph1" class="graph" transform="scale(1 1) rotate(0) translate(4 364)"><title>g</title><polygon fill="#fff" stroke="#fff" points="-4 5 -4 -364 481 -364 481 5 -4 5"/><g id="node2" class="node"><title>d7e31168</title><ellipse cx="150" cy="-342" fill="none" stroke="#000" rx="53.838" ry="18"/><text x="150" y="-337.4" font-family="Times New Roman,serif" font-size="14" text-anchor="middle">xsl:template</text></g><g id="node4" class="node"><title>sequence_constructor</title><ellipse cx="150" cy="-288" fill="none" stroke="#000" rx="91.232" ry="18"/><text x="150" y="-283.4" font-family="Times New Roman,serif" font-size="14" text-anchor="middle">sequence constructor</text></g><g id="edge46" class="edge"><title>d7e31168-&gt;sequence_constructor</title><path fill="none" stroke="#000" d="M150,-323.718C150,-321.343 150,-318.867 150,-316.375"/><polygon fill="#000" stroke="#000" points="153.5 -316.263 150 -306.263 146.5 -316.263 153.5 -316.263"/></g><g id="node6" class="node"><title>var_decl</title><ellipse cx="78" cy="-234" fill="none" stroke="#000" rx="77.986" ry="18"/><text x="78" y="-229.4" font-family="Times New Roman,serif" font-size="14" text-anchor="middle">xsl:variable doc-A</text></g><g id="edge42" class="edge"><title>sequence_constructor-&gt;var_decl</title><path fill="none" stroke="#000" d="M126.425,-270.318C121.024,-266.268 115.198,-261.898 109.522,-257.642"/><polygon fill="#000" stroke="#000" points="111.483 -254.737 101.383 -251.537 107.283 -260.337 111.483 -254.737"/></g><g id="node14" class="node"><title>d7e31173</title><ellipse cx="222" cy="-234" fill="none" stroke="#000" rx="47.801" ry="18"/><text x="222" y="-229.4" font-family="Times New Roman,serif" font-size="14" text-anchor="middle">xsl:stream</text></g><g id="edge44" class="edge"><title>sequence_constructor-&gt;d7e31173</title><path fill="none" stroke="#000" d="M173.575,-270.318C179.44,-265.92 185.806,-261.145 191.936,-256.548"/><polygon fill="#000" stroke="#000" points="194.18 -259.24 200.08 -250.44 189.98 -253.64 194.18 -259.24"/></g><g id="node8" class="node"><title>var_init</title><ellipse cx="78" cy="-180" fill="none" stroke="#000" rx="31.028" ry="18"/><text x="78" y="-175.4" font-family="Times New Roman,serif" font-size="14" text-anchor="middle">doc()</text></g><g id="edge9" class="edge"><title>var_decl-&gt;var_init</title><path fill="none" stroke="#000" d="M78,-215.718C78,-213.343 78,-210.867 78,-208.375"/><polygon fill="#000" stroke="#000" points="81.5 -208.263 78 -198.263 74.5 -208.263 81.5 -208.263"/></g><g id="node10" class="node"><title>d7e31172</title><ellipse cx="78" cy="-126" fill="none" stroke="#000" rx="34.883" ry="18"/><text x="78" y="-121.4" font-family="Times New Roman,serif" font-size="14" text-anchor="middle">&apos;a.xml&apos;</text></g><g id="edge7" class="edge"><title>var_init-&gt;d7e31172</title><path fill="none" stroke="#000" d="M78,-161.718C78,-159.343 78,-156.867 78,-154.375"/><polygon fill="#000" stroke="#000" points="81.5 -154.263 78 -144.263 74.5 -154.263 81.5 -154.263"/></g><g id="node16" class="node"><title>d7e31174</title><ellipse cx="192" cy="-180" fill="none" stroke="#000" rx="36.224" ry="18"/><text x="192" y="-175.4" font-family="Times New Roman,serif" font-size="14" text-anchor="middle">&apos;b.xml&apos;</text></g><g id="edge38" class="edge"><title>d7e31173-&gt;d7e31174</title><path fill="none" stroke="#000" d="M212.177,-216.318C210.398,-213.116 208.507,-209.713 206.625,-206.325"/><polygon fill="#000" stroke="#000" points="209.659 -204.579 201.743 -197.537 203.54 -207.978 209.659 -204.579"/></g><g id="node18" class="node"><title>d7e31175</title><ellipse cx="273" cy="-180" fill="none" stroke="#000" rx="27" ry="18"/><text x="273" y="-175.4" font-family="Times New Roman,serif" font-size="14" text-anchor="middle">plus</text></g><g id="edge40" class="edge"><title>d7e31173-&gt;d7e31175</title><path fill="none" stroke="#000" d="M238.137,-216.914C242.427,-212.372 247.127,-207.395 251.648,-202.608"/><polygon fill="#000" stroke="#000" points="254.2 -205.003 258.522 -195.33 249.111 -200.197 254.2 -205.003"/></g><g id="node20" class="node"><title>d7e31176</title><ellipse cx="206" cy="-126" fill="none" stroke="#000" rx="38.237" ry="18"/><text x="206" y="-121.4" font-family="Times New Roman,serif" font-size="14" text-anchor="middle">count()</text></g><g id="edge34" class="edge"><title>d7e31175-&gt;d7e31176</title><path fill="none" stroke="#000" d="M255.746,-166.094C248.912,-160.586 240.888,-154.119 233.304,-148.006"/><polygon fill="#000" stroke="#000" points="235.305 -145.124 225.323 -141.574 230.913 -150.574 235.305 -145.124"/></g><g id="node31" class="node"><title>d7e31180</title><ellipse cx="306" cy="-126" fill="none" stroke="#000" rx="38.237" ry="18"/><text x="306" y="-121.4" font-family="Times New Roman,serif" font-size="14" text-anchor="middle">count()</text></g><g id="edge36" class="edge"><title>d7e31175-&gt;d7e31180</title><path fill="none" stroke="#000" d="M283.261,-163.21C285.432,-159.657 287.772,-155.828 290.096,-152.025"/><polygon fill="#000" stroke="#000" points="293.176 -153.697 295.404 -143.339 287.203 -150.047 293.176 -153.697"/></g><g id="node22" class="node"><title>path2</title><ellipse cx="203" cy="-72" fill="none" stroke="#000" rx="27" ry="18"/><text x="203" y="-67.4" font-family="Times New Roman,serif" font-size="14" text-anchor="middle">path</text></g><g id="edge22" class="edge"><title>d7e31176-&gt;path2</title><path fill="none" stroke="#000" d="M204.984,-107.718C204.852,-105.343 204.715,-102.867 204.576,-100.375"/><polygon fill="#000" stroke="#000" points="208.064 -100.054 204.015 -90.263 201.075 -100.442 208.064 -100.054"/></g><g id="node24" class="node"><title>var_ref</title><ellipse cx="85" cy="-18" fill="none" stroke="#000" rx="39.077" ry="18"/><text x="85" y="-13.4" font-family="Times New Roman,serif" font-size="14" text-anchor="middle">$doc-A</text></g><g id="edge18" class="edge"><title>path2-&gt;var_ref</title><path fill="none" stroke="#000" d="M180.527,-61.7159C163.977,-54.1422 141.106,-43.6755 121.891,-34.8824"/><polygon fill="#000" stroke="#000" points="123.346 -31.699 112.796 -30.72 120.433 -38.064 123.346 -31.699"/></g><g id="node26" class="node"><title>desc2</title><ellipse cx="203" cy="-18" fill="none" stroke="#000" rx="61.214" ry="18"/><text x="203" y="-13.4" font-family="Times New Roman,serif" font-size="14" text-anchor="middle">descendant::*</text></g><g id="edge20" class="edge"><title>path2-&gt;desc2</title><path fill="none" stroke="#000" d="M203,-53.7181C203,-51.3429 203,-48.867 203,-46.3754"/><polygon fill="#000" stroke="#000" points="206.5 -46.263 203 -36.263 199.5 -46.263 206.5 -46.263"/></g><g id="node33" class="node"><title>path1</title><ellipse cx="309" cy="-72" fill="none" stroke="#000" rx="27" ry="18"/><text x="309" y="-67.4" font-family="Times New Roman,serif" font-size="14" text-anchor="middle">path</text></g><g id="edge32" class="edge"><title>d7e31180-&gt;path1</title><path fill="none" stroke="#000" d="M307.016,-107.718C307.148,-105.343 307.285,-102.867 307.424,-100.375"/><polygon fill="#000" stroke="#000" points="310.925 -100.442 307.985 -90.263 303.936 -100.054 310.925 -100.442"/></g><g id="node35" class="node"><title>d7e31182</title><ellipse cx="309" cy="-18" fill="none" stroke="#000" rx="27" ry="18"/><text x="309" y="-13.4" font-family="Times New Roman,serif" font-size="14" text-anchor="middle">.</text></g><g id="edge28" class="edge"><title>path1-&gt;d7e31182</title><path fill="none" stroke="#000" d="M309,-53.7181C309,-51.3429 309,-48.867 309,-46.3754"/><polygon fill="#000" stroke="#000" points="312.5 -46.263 309 -36.263 305.5 -46.263 312.5 -46.263"/></g><g id="node37" class="node"><title>desc1</title><ellipse cx="415" cy="-18" fill="none" stroke="#000" rx="61.214" ry="18"/><text x="415" y="-13.4" font-family="Times New Roman,serif" font-size="14" text-anchor="middle">descendant::*</text></g><g id="edge30" class="edge"><title>path1-&gt;desc1</title><path fill="none" stroke="#000" d="M330.706,-60.942C343.447,-54.4516 359.946,-46.0463 374.965,-38.395"/><polygon fill="#000" stroke="#000" points="376.757 -41.41 384.079 -33.752 373.58 -35.173 376.757 -41.41"/></g></g></svg>