<svg xmlns="http://www.w3.org/2000/svg" xmlns:xlink="http://www.w3.org/1999/xlink" width="547pt" height="314pt" viewBox="0 0 547 314"><g id="graph1" class="graph" transform="scale(1 1) rotate(0) translate(4 310)"><title>g</title><polygon fill="#fff" stroke="#fff" points="-4 5 -4 -310 544 -310 544 5 -4 5"/><g id="node2" class="node"><title>d7e31484</title><ellipse cx="150" cy="-288" fill="none" stroke="#000" rx="53.838" ry="18"/><text x="150" y="-283.4" font-family="Times New Roman,serif" font-size="14" text-anchor="middle">xsl:template</text></g><g id="node4" class="node"><title>var_decl</title><ellipse cx="78" cy="-234" fill="none" stroke="#000" rx="77.986" ry="18"/><text x="78" y="-229.4" font-family="Times New Roman,serif" font-size="14" text-anchor="middle">xsl:variable doc-A</text></g><g id="edge41" class="edge"><title>d7e31484-&gt;var_decl</title><path fill="none" stroke="#000" d="M128.006,-271.505C122.149,-267.112 115.707,-262.28 109.45,-257.587"/><polygon fill="#000" stroke="#000" points="111.206 -254.53 101.106 -251.33 107.006 -260.13 111.206 -254.53"/></g><g id="node12" class="node"><title>stream</title><ellipse cx="222" cy="-234" fill="none" stroke="#000" rx="47.801" ry="18"/><text x="222" y="-229.4" font-family="Times New Roman,serif" font-size="14" text-anchor="middle">xsl:stream</text></g><g id="edge43" class="edge"><title>d7e31484-&gt;stream</title><path fill="none" stroke="#000" d="M171.994,-271.505C178.274,-266.794 185.229,-261.578 191.905,-256.571"/><polygon fill="#000" stroke="#000" points="194.241 -259.194 200.141 -250.394 190.041 -253.594 194.241 -259.194"/></g><g id="node6" class="node"><title>var_init</title><ellipse cx="78" cy="-180" fill="none" stroke="#000" rx="31.028" ry="18"/><text x="78" y="-175.4" font-family="Times New Roman,serif" font-size="14" text-anchor="middle">doc()</text></g><g id="edge8" class="edge"><title>var_decl-&gt;var_init</title><path fill="none" stroke="#000" d="M71.5965,-216.019C71.384,-213.35 71.2692,-210.547 71.2522,-207.735"/><polygon fill="#000" stroke="#000" points="74.751 -207.84 71.618 -197.719 67.755 -207.585 74.751 -207.84"/></g><g id="node22" class="node"><title>var_ref</title><ellipse cx="148" cy="-18" fill="none" stroke="#000" rx="39.077" ry="18"/><text x="148" y="-13.4" font-family="Times New Roman,serif" font-size="14" text-anchor="middle">$doc-A</text></g><g id="edge47" class="edge"><title>var_decl-&gt;var_ref</title><path fill="none" stroke="red" d="M102.38,-216.779C108.355,-211.42 114.137,-205.045 118,-198 144.618,-149.456 148.875,-83.3122 148.896,-46.2161"/><polygon fill="red" stroke="red" points="152.395 -46.089 148.796 -36.125 145.396 -46.159 152.395 -46.089"/></g><g id="edge45" class="edge"><title>var_init-&gt;var_decl</title><path fill="none" stroke="red" d="M84.3823,-197.719C84.6012,-200.379 84.7224,-203.177 84.7458,-205.989"/><polygon fill="red" stroke="red" points="81.247 -205.905 84.403 -216.019 88.243 -206.144 81.247 -205.905"/></g><g id="node8" class="node"><title>d7e31487</title><ellipse cx="78" cy="-126" fill="none" stroke="#000" rx="34.883" ry="18"/><text x="78" y="-121.4" font-family="Times New Roman,serif" font-size="14" text-anchor="middle">&apos;a.xml&apos;</text></g><g id="edge6" class="edge"><title>var_init-&gt;d7e31487</title><path fill="none" stroke="#000" d="M78,-161.718C78,-159.343 78,-156.867 78,-154.375"/><polygon fill="#000" stroke="#000" points="81.5 -154.263 78 -144.263 74.5 -154.263 81.5 -154.263"/></g><g id="node14" class="node"><title>d7e31489</title><ellipse cx="212" cy="-180" fill="none" stroke="#000" rx="36.224" ry="18"/><text x="212" y="-175.4" font-family="Times New Roman,serif" font-size="14" text-anchor="middle">&apos;b.xml&apos;</text></g><g id="edge37" class="edge"><title>stream-&gt;d7e31489</title><path fill="none" stroke="#000" d="M218.67,-216.019C218.203,-213.495 217.714,-210.853 217.221,-208.195"/><polygon fill="#000" stroke="#000" points="220.612 -207.282 215.349 -198.087 213.729 -208.557 220.612 -207.282"/></g><g id="node16" class="node"><title>d7e31490</title><ellipse cx="293" cy="-180" fill="none" stroke="#000" rx="27" ry="18"/><text x="293" y="-175.4" font-family="Times New Roman,serif" font-size="14" text-anchor="middle">plus</text></g><g id="edge39" class="edge"><title>stream-&gt;d7e31490</title><path fill="none" stroke="#000" d="M243.302,-217.798C250.742,-212.14 259.177,-205.725 266.958,-199.807"/><polygon fill="#000" stroke="#000" points="269.226 -202.479 275.067 -193.64 264.988 -196.907 269.226 -202.479"/></g><g id="node33" class="node"><title>dot</title><ellipse cx="372" cy="-18" fill="none" stroke="#000" rx="27" ry="18"/><text x="372" y="-13.4" font-family="Times New Roman,serif" font-size="14" text-anchor="middle">.</text></g><g id="edge57" class="edge"><title>stream-&gt;dot</title><path fill="none" stroke="red" d="M267.688,-228.101C315.107,-219.182 386.399,-197.212 416,-144 435.522,-108.907 426.052,-89.8715 408,-54 405.251,-48.5374 401.358,-43.3979 397.141,-38.8059"/><polygon fill="red" stroke="red" points="399.455 -36.172 389.882 -31.634 394.536 -41.152 399.455 -36.172"/></g><g id="node18" class="node"><title>d7e31491</title><ellipse cx="272" cy="-126" fill="none" stroke="#000" rx="38.237" ry="18"/><text x="272" y="-121.4" font-family="Times New Roman,serif" font-size="14" text-anchor="middle">count()</text></g><g id="edge33" class="edge"><title>d7e31490-&gt;d7e31491</title><path fill="none" stroke="#000" d="M286.124,-162.318C285.011,-159.458 283.837,-156.438 282.66,-153.412"/><polygon fill="#000" stroke="#000" points="285.85 -151.958 278.964 -143.906 279.326 -154.495 285.85 -151.958"/></g><g id="node29" class="node"><title>d7e31495</title><ellipse cx="369" cy="-126" fill="none" stroke="#000" rx="38.237" ry="18"/><text x="369" y="-121.4" font-family="Times New Roman,serif" font-size="14" text-anchor="middle">count()</text></g><g id="edge35" class="edge"><title>d7e31490-&gt;d7e31495</title><path fill="none" stroke="#000" d="M311.787,-166.652C320.133,-160.721 330.157,-153.599 339.467,-146.984"/><polygon fill="#000" stroke="#000" points="341.623 -149.746 347.748 -141.1 337.569 -144.039 341.623 -149.746"/></g><g id="node20" class="node"><title>path2</title><ellipse cx="266" cy="-72" fill="none" stroke="#000" rx="27" ry="18"/><text x="266" y="-67.4" font-family="Times New Roman,serif" font-size="14" text-anchor="middle">path</text></g><g id="edge21" class="edge"><title>d7e31491-&gt;path2</title><path fill="none" stroke="#000" d="M270.002,-108.019C269.722,-105.495 269.428,-102.853 269.133,-100.195"/><polygon fill="#000" stroke="#000" points="272.593 -99.639 268.01 -90.087 265.635 -100.412 272.593 -99.639"/></g><g id="edge17" class="edge"><title>path2-&gt;var_ref</title><path fill="none" stroke="#000" d="M243.527,-61.7159C226.977,-54.1422 204.106,-43.6755 184.891,-34.8824"/><polygon fill="#000" stroke="#000" points="186.346 -31.699 175.796 -30.72 183.433 -38.064 186.346 -31.699"/></g><g id="node24" class="node"><title>desc2</title><ellipse cx="266" cy="-18" fill="none" stroke="#000" rx="61.214" ry="18"/><text x="266" y="-13.4" font-family="Times New Roman,serif" font-size="14" text-anchor="middle">descendant::*</text></g><g id="edge19" class="edge"><title>path2-&gt;desc2</title><path fill="none" stroke="#000" d="M259.621,-54.3184C259.4,-51.6423 259.277,-48.8271 259.254,-45.9972"/><polygon fill="#000" stroke="#000" points="262.755 -46.021 259.602 -35.906 255.759 -45.779 262.755 -46.021"/></g><g id="edge55" class="edge"><title>var_ref-&gt;desc2</title><path fill="none" stroke="red" d="M187.18,-18C189.648,-18 192.116,-18 194.584,-18"/><polygon fill="red" stroke="red" points="194.73 -21.5 204.73 -18 194.729 -14.5 194.73 -21.5"/></g><g id="edge51" class="edge"><title>desc2-&gt;path2</title><path fill="none" stroke="red" d="M272.398,-35.9062C272.613,-38.5899 272.73,-41.4094 272.748,-44.24"/><polygon fill="red" stroke="red" points="269.247 -44.197 272.379 -54.318 276.242 -44.453 269.247 -44.197"/></g><g id="node31" class="node"><title>path1</title><ellipse cx="372" cy="-72" fill="none" stroke="#000" rx="27" ry="18"/><text x="372" y="-67.4" font-family="Times New Roman,serif" font-size="14" text-anchor="middle">path</text></g><g id="edge31" class="edge"><title>d7e31495-&gt;path1</title><path fill="none" stroke="#000" d="M370.016,-107.718C370.148,-105.343 370.285,-102.867 370.424,-100.375"/><polygon fill="#000" stroke="#000" points="373.925 -100.442 370.985 -90.263 366.936 -100.054 373.925 -100.442"/></g><g id="edge27" class="edge"><title>path1-&gt;dot</title><path fill="none" stroke="#000" d="M372,-53.7181C372,-51.3429 372,-48.867 372,-46.3754"/><polygon fill="#000" stroke="#000" points="375.5 -46.263 372 -36.263 368.5 -46.263 375.5 -46.263"/></g><g id="node35" class="node"><title>desc1</title><ellipse cx="478" cy="-18" fill="none" stroke="#000" rx="61.214" ry="18"/><text x="478" y="-13.4" font-family="Times New Roman,serif" font-size="14" text-anchor="middle">descendant::*</text></g><g id="edge29" class="edge"><title>path1-&gt;desc1</title><path fill="none" stroke="#000" d="M391.281,-59.2028C403.23,-52.6424 418.959,-44.5183 433.772,-37.2224"/><polygon fill="#000" stroke="#000" points="435.378 -40.334 442.835 -32.808 432.312 -34.041 435.378 -40.334"/></g><g id="edge53" class="edge"><title>dot-&gt;desc1</title><path fill="none" stroke="red" d="M399.328,-18C401.791,-18 404.255,-18 406.718,-18"/><polygon fill="red" stroke="red" points="406.845 -21.5 416.845 -18 406.845 -14.5 406.845 -21.5"/></g><g id="edge49" class="edge"><title>desc1-&gt;path1</title><path fill="none" stroke="red" d="M452.161,-34.3523C437.803,-42.0463 419.899,-51.114 404.599,-58.4221"/><polygon fill="red" stroke="red" points="403.024 -55.295 395.464 -62.717 406.003 -61.63 403.024 -55.295"/></g></g></svg>