<svg xmlns="http://www.w3.org/2000/svg" xmlns:xlink="http://www.w3.org/1999/xlink" width="767pt" height="638pt" viewBox="0 0 767.06 638"><g id="graph1" class="graph" transform="scale(1 1) rotate(0) translate(4 634)"><title>g</title><polygon fill="#fff" stroke="#fff" points="-4 5 -4 -634 764.059 -634 764.059 5 -4 5"/><g id="node2" class="node"><title>root</title><ellipse cx="193" cy="-612" fill="none" stroke="#000" rx="53.838" ry="18"/><text x="193" y="-607.4" font-family="Times New Roman,serif" font-size="14" text-anchor="middle">xsl:template</text></g><g id="node4" class="node"><title>d7e31759</title><ellipse cx="193" cy="-558" fill="none" stroke="#000" rx="27" ry="18"/><text x="193" y="-553.4" font-family="Times New Roman,serif" font-size="14" text-anchor="middle">if</text></g><g id="edge103" class="edge"><title>root-&gt;d7e31759</title><path fill="none" stroke="#000" d="M193,-593.718C193,-591.343 193,-588.867 193,-586.375"/><polygon fill="#000" stroke="#000" points="196.5 -586.263 193 -576.263 189.5 -586.263 196.5 -586.263"/></g><g id="node10" class="node"><title>a0</title><ellipse cx="38" cy="-396" fill="none" stroke="#000" rx="38.237" ry="18"/><text x="38" y="-391.4" font-family="Times New Roman,serif" font-size="14" text-anchor="middle">@code</text></g><g id="edge105" class="edge"><title>root-&gt;a0</title><path fill="none" stroke="red" d="M222.378,-596.822C279.966,-565.224 397.519,-490.455 343,-432 323.4,-410.985 113.058,-420.207 85,-414 81.8434,-413.302 78.6174,-412.429 75.4081,-411.448"/><polygon fill="red" stroke="red" points="76.51 -408.126 65.916 -408.24 74.269 -414.757 76.51 -408.126"/></g><g id="node19" class="node"><title>c0</title><ellipse cx="193" cy="-450" fill="none" stroke="#000" rx="69.094" ry="18"/><text x="193" y="-445.4" font-family="Times New Roman,serif" font-size="14" text-anchor="middle">child::firstName</text></g><g id="edge113" class="edge"><title>root-&gt;c0</title><path fill="none" stroke="red" d="M223.385,-597.04C265.712,-574.171 333.934,-528.672 303,-486 296.866,-477.538 277.554,-470.009 256.786,-464.052"/><polygon fill="red" stroke="red" points="257.425 -460.598 246.856 -461.342 255.582 -467.351 257.425 -460.598"/></g><g id="node30" class="node"><title>a1</title><ellipse cx="132" cy="-288" fill="none" stroke="#000" rx="38.237" ry="18"/><text x="132" y="-283.4" font-family="Times New Roman,serif" font-size="14" text-anchor="middle">@code</text></g><g id="edge107" class="edge"><title>root-&gt;a1</title><path fill="none" stroke="red" d="M236.651,-601.283C254.76,-595.569 275.376,-587.329 292,-576 347.113,-538.441 500.599,-372.67 455,-324 433.988,-301.573 209.021,-312.57 179,-306 175.842,-305.309 172.615,-304.442 169.405,-303.463"/><polygon fill="red" stroke="red" points="170.505 -300.141 159.911 -300.262 168.268 -306.774 170.505 -300.141"/></g><g id="node39" class="node"><title>c1</title><ellipse cx="307" cy="-342" fill="none" stroke="#000" rx="67.082" ry="18"/><text x="307" y="-337.4" font-family="Times New Roman,serif" font-size="14" text-anchor="middle">child::lastName</text></g><g id="edge115" class="edge"><title>root-&gt;c1</title><path fill="none" stroke="red" d="M242.607,-604.714C271.64,-599.255 308.474,-590.225 339,-576 341.307,-574.925 411.625,-524.141 413,-522 447.974,-467.517 474.094,-429.607 435,-378 432.695,-374.957 398.58,-365.443 366.152,-356.959"/><polygon fill="red" stroke="red" points="366.739 -353.496 356.18 -354.368 364.978 -360.271 366.739 -353.496"/></g><g id="node50" class="node"><title>a2</title><ellipse cx="285" cy="-180" fill="none" stroke="#000" rx="38.237" ry="18"/><text x="285" y="-175.4" font-family="Times New Roman,serif" font-size="14" text-anchor="middle">@code</text></g><g id="edge109" class="edge"><title>root-&gt;a2</title><path fill="none" stroke="red" d="M243.427,-605.325C289.855,-598.618 354.915,-587.63 378,-576 496.129,-516.486 596.551,-297.92 610,-252 614.497,-236.645 620.942,-227.673 610,-216 588.831,-193.416 362.24,-204.61 332,-198 328.842,-197.31 325.614,-196.443 322.404,-195.465"/><polygon fill="red" stroke="red" points="323.505 -192.143 312.911 -192.264 321.268 -198.776 323.505 -192.143"/></g><g id="node58" class="node"><title>a3</title><ellipse cx="283" cy="-18" fill="none" stroke="#000" rx="47.127" ry="18"/><text x="283" y="-13.4" font-family="Times New Roman,serif" font-size="14" text-anchor="middle">@married</text></g><g id="edge111" class="edge"><title>root-&gt;a3</title><path fill="none" stroke="red" d="M245.146,-607.064C301.562,-601.12 387.418,-590.147 417,-576 433.183,-568.261 464.524,-534.889 477,-522 542.48,-454.348 717.708,-286.44 750,-198 807.477,-40.5853 565.999,-79.8734 476,-54 430.142,-40.8165 376.725,-31.2864 337.729,-25.3562"/><polygon fill="red" stroke="red" points="338.042 -21.864 327.635 -23.853 337.011 -28.788 338.042 -21.864"/></g><g id="node80" class="node"><title>c2</title><ellipse cx="419" cy="-234" fill="none" stroke="#000" rx="79.828" ry="18"/><text x="419" y="-229.4" font-family="Times New Roman,serif" font-size="14" text-anchor="middle">child::formerName</text></g><g id="edge117" class="edge"><title>root-&gt;c2</title><path fill="none" stroke="red" d="M245.805,-608.175C312.316,-602.791 422.45,-591.833 460,-576 519.804,-550.783 523.481,-525.473 575,-486 585.584,-477.891 589.436,-477.291 599,-468 621.006,-446.623 631.878,-442.962 642,-414 666.228,-344.682 622.106,-310.719 561,-270 554.306,-265.539 519.549,-256.696 486.1,-248.89"/><polygon fill="red" stroke="red" points="486.793 -245.458 476.262 -246.614 485.216 -252.278 486.793 -245.458"/></g><g id="node87" class="node"><title>c3</title><ellipse cx="520" cy="-180" fill="none" stroke="#000" rx="69.094" ry="18"/><text x="520" y="-175.4" font-family="Times New Roman,serif" font-size="14" text-anchor="middle">child::firstName</text></g><g id="edge119" class="edge"><title>root-&gt;c3</title><path fill="none" stroke="red" d="M246.698,-609.38C322.662,-605.06 457.245,-594.967 502,-576 519.133,-568.739 618.393,-482.545 630,-468 699.866,-380.453 701.9,-299.282 627,-216 620.155,-208.389 601.081,-200.995 580.898,-194.909"/><polygon fill="red" stroke="red" points="581.848 -191.54 571.269 -192.12 579.9 -198.264 581.848 -191.54"/></g><g id="node89" class="node"><title>c4</title><ellipse cx="674" cy="-180" fill="none" stroke="#000" rx="67.082" ry="18"/><text x="674" y="-175.4" font-family="Times New Roman,serif" font-size="14" text-anchor="middle">child::lastName</text></g><g id="edge121" class="edge"><title>root-&gt;c4</title><path fill="none" stroke="red" d="M246.859,-610.157C330.555,-606.666 487.571,-597.424 539,-576 573.986,-561.426 577.265,-547.83 605,-522 675.874,-455.995 703.334,-420.571 696,-324 692.926,-283.527 685.059,-237.203 679.618,-208.272"/><polygon fill="red" stroke="red" points="682.985 -207.247 677.666 -198.084 676.11 -208.564 682.985 -207.247"/></g><g id="node6" class="node"><title>d7e31760</title><ellipse cx="100" cy="-504" fill="none" stroke="#000" rx="27" ry="18"/><text x="100" y="-499.4" font-family="Times New Roman,serif" font-size="14" text-anchor="middle">test</text></g><g id="edge97" class="edge"><title>d7e31759-&gt;d7e31760</title><path fill="none" stroke="#000" d="M172.36,-546.016C159.718,-538.675 143.336,-529.163 129.357,-521.046"/><polygon fill="#000" stroke="#000" points="130.987 -517.945 120.582 -515.951 127.472 -523.999 130.987 -517.945"/></g><g id="node17" class="node"><title>d7e31764</title><ellipse cx="193" cy="-504" fill="none" stroke="#000" rx="27" ry="18"/><text x="193" y="-499.4" font-family="Times New Roman,serif" font-size="14" text-anchor="middle">then</text></g><g id="edge99" class="edge"><title>d7e31759-&gt;d7e31764</title><path fill="none" stroke="#000" d="M193,-539.718C193,-537.343 193,-534.867 193,-532.375"/><polygon fill="#000" stroke="#000" points="196.5 -532.263 193 -522.263 189.5 -532.263 196.5 -532.263"/></g><g id="node22" class="node"><title>d7e31766</title><ellipse cx="267" cy="-504" fill="none" stroke="#000" rx="27" ry="18"/><text x="267" y="-499.4" font-family="Times New Roman,serif" font-size="14" text-anchor="middle">else</text></g><g id="edge101" class="edge"><title>d7e31759-&gt;d7e31766</title><path fill="none" stroke="#000" d="M211.292,-544.652C220.098,-538.226 230.821,-530.401 240.5,-523.338"/><polygon fill="#000" stroke="#000" points="242.647 -526.104 248.662 -517.382 238.521 -520.449 242.647 -526.104"/></g><g id="node8" class="node"><title>d7e31761</title><ellipse cx="79" cy="-450" fill="none" stroke="#000" rx="27" ry="18"/><text x="79" y="-445.4" font-family="Times New Roman,serif" font-size="14" text-anchor="middle">=</text></g><g id="edge12" class="edge"><title>d7e31760-&gt;d7e31761</title><path fill="none" stroke="#000" d="M93.1238,-486.318C91.9515,-483.304 90.7106,-480.113 89.4702,-476.923"/><polygon fill="#000" stroke="#000" points="92.707 -475.588 85.82 -467.537 86.182 -478.126 92.707 -475.588"/></g><g id="edge8" class="edge"><title>d7e31761-&gt;a0</title><path fill="none" stroke="#000" d="M66.6986,-433.798C63.6514,-429.785 60.3149,-425.39 57.029,-421.063"/><polygon fill="#000" stroke="#000" points="59.697 -418.788 50.862 -412.94 54.121 -423.021 59.697 -418.788"/></g><g id="node12" class="node"><title>d7e31763</title><ellipse cx="121" cy="-396" fill="none" stroke="#000" rx="27" ry="18"/><text x="121" y="-391.4" font-family="Times New Roman,serif" font-size="14" text-anchor="middle">23</text></g><g id="edge10" class="edge"><title>d7e31761-&gt;d7e31763</title><path fill="none" stroke="#000" d="M91.6014,-433.798C94.9238,-429.527 98.582,-424.823 102.156,-420.228"/><polygon fill="#000" stroke="#000" points="105.031 -422.233 108.408 -412.19 99.505 -417.935 105.031 -422.233"/></g><g id="edge16" class="edge"><title>d7e31764-&gt;c0</title><path fill="none" stroke="#000" d="M193,-485.718C193,-483.343 193,-480.867 193,-478.375"/><polygon fill="#000" stroke="#000" points="196.5 -478.263 193 -468.263 189.5 -478.263 196.5 -478.263"/></g><g id="node24" class="node"><title>d7e31767</title><ellipse cx="307" cy="-450" fill="none" stroke="#000" rx="27" ry="18"/><text x="307" y="-445.4" font-family="Times New Roman,serif" font-size="14" text-anchor="middle">if</text></g><g id="edge95" class="edge"><title>d7e31766-&gt;d7e31767</title><path fill="none" stroke="#000" d="M279.001,-487.798C282.165,-483.527 285.649,-478.823 289.053,-474.228"/><polygon fill="#000" stroke="#000" points="291.867 -476.309 295.007 -466.19 286.242 -472.143 291.867 -476.309"/></g><g id="node26" class="node"><title>d7e31768</title><ellipse cx="215" cy="-396" fill="none" stroke="#000" rx="27" ry="18"/><text x="215" y="-391.4" font-family="Times New Roman,serif" font-size="14" text-anchor="middle">test</text></g><g id="edge89" class="edge"><title>d7e31767-&gt;d7e31768</title><path fill="none" stroke="#000" d="M286.582,-438.016C274.076,-430.675 257.87,-421.163 244.042,-413.046"/><polygon fill="#000" stroke="#000" points="245.757 -409.994 235.361 -407.951 242.213 -416.031 245.757 -409.994"/></g><g id="node37" class="node"><title>d7e31772</title><ellipse cx="307" cy="-396" fill="none" stroke="#000" rx="27" ry="18"/><text x="307" y="-391.4" font-family="Times New Roman,serif" font-size="14" text-anchor="middle">then</text></g><g id="edge91" class="edge"><title>d7e31767-&gt;d7e31772</title><path fill="none" stroke="#000" d="M307,-431.718C307,-429.343 307,-426.867 307,-424.375"/><polygon fill="#000" stroke="#000" points="310.5 -424.263 307 -414.263 303.5 -424.263 310.5 -424.263"/></g><g id="node42" class="node"><title>d7e31774</title><ellipse cx="399" cy="-396" fill="none" stroke="#000" rx="27" ry="18"/><text x="399" y="-391.4" font-family="Times New Roman,serif" font-size="14" text-anchor="middle">else</text></g><g id="edge93" class="edge"><title>d7e31767-&gt;d7e31774</title><path fill="none" stroke="#000" d="M327.418,-438.016C339.924,-430.675 356.13,-421.163 369.958,-413.046"/><polygon fill="#000" stroke="#000" points="371.787 -416.031 378.639 -407.951 368.243 -409.994 371.787 -416.031"/></g><g id="node28" class="node"><title>d7e31769</title><ellipse cx="195" cy="-342" fill="none" stroke="#000" rx="27" ry="18"/><text x="195" y="-337.4" font-family="Times New Roman,serif" font-size="14" text-anchor="middle">=</text></g><g id="edge28" class="edge"><title>d7e31768-&gt;d7e31769</title><path fill="none" stroke="#000" d="M208.451,-378.318C207.335,-375.304 206.153,-372.113 204.972,-368.923"/><polygon fill="#000" stroke="#000" points="208.25 -367.699 201.495 -359.537 201.686 -370.13 208.25 -367.699"/></g><g id="edge24" class="edge"><title>d7e31769-&gt;a1</title><path fill="none" stroke="#000" d="M178.117,-327.529C172.039,-322.32 165.029,-316.311 158.338,-310.575"/><polygon fill="#000" stroke="#000" points="160.575 -307.883 150.705 -304.033 156.02 -313.198 160.575 -307.883"/></g><g id="node32" class="node"><title>d7e31771</title><ellipse cx="215" cy="-288" fill="none" stroke="#000" rx="27" ry="18"/><text x="215" y="-283.4" font-family="Times New Roman,serif" font-size="14" text-anchor="middle">24</text></g><g id="edge26" class="edge"><title>d7e31769-&gt;d7e31771</title><path fill="none" stroke="#000" d="M201.549,-324.318C202.665,-321.304 203.847,-318.113 205.028,-314.923"/><polygon fill="#000" stroke="#000" points="208.314 -316.13 208.505 -305.537 201.75 -313.699 208.314 -316.13"/></g><g id="edge32" class="edge"><title>d7e31772-&gt;c1</title><path fill="none" stroke="#000" d="M307,-377.718C307,-375.343 307,-372.867 307,-370.375"/><polygon fill="#000" stroke="#000" points="310.5 -370.263 307 -360.263 303.5 -370.263 310.5 -370.263"/></g><g id="node44" class="node"><title>d7e31775</title><ellipse cx="419" cy="-342" fill="none" stroke="#000" rx="27" ry="18"/><text x="419" y="-337.4" font-family="Times New Roman,serif" font-size="14" text-anchor="middle">if</text></g><g id="edge87" class="edge"><title>d7e31774-&gt;d7e31775</title><path fill="none" stroke="#000" d="M405.549,-378.318C406.665,-375.304 407.847,-372.113 409.028,-368.923"/><polygon fill="#000" stroke="#000" points="412.314 -370.13 412.505 -359.537 405.75 -367.699 412.314 -370.13"/></g><g id="node46" class="node"><title>d7e31776</title><ellipse cx="327" cy="-288" fill="none" stroke="#000" rx="27" ry="18"/><text x="327" y="-283.4" font-family="Times New Roman,serif" font-size="14" text-anchor="middle">test</text></g><g id="edge81" class="edge"><title>d7e31775-&gt;d7e31776</title><path fill="none" stroke="#000" d="M398.582,-330.016C386.076,-322.675 369.87,-313.163 356.042,-305.046"/><polygon fill="#000" stroke="#000" points="357.757 -301.994 347.361 -299.951 354.213 -308.031 357.757 -301.994"/></g><g id="node78" class="node"><title>d7e31787</title><ellipse cx="419" cy="-288" fill="none" stroke="#000" rx="27" ry="18"/><text x="419" y="-283.4" font-family="Times New Roman,serif" font-size="14" text-anchor="middle">then</text></g><g id="edge83" class="edge"><title>d7e31775-&gt;d7e31787</title><path fill="none" stroke="#000" d="M419,-323.718C419,-321.343 419,-318.867 419,-316.375"/><polygon fill="#000" stroke="#000" points="422.5 -316.263 419 -306.263 415.5 -316.263 422.5 -316.263"/></g><g id="node83" class="node"><title>d7e31789</title><ellipse cx="525" cy="-288" fill="none" stroke="#000" rx="27" ry="18"/><text x="525" y="-283.4" font-family="Times New Roman,serif" font-size="14" text-anchor="middle">else</text></g><g id="edge85" class="edge"><title>d7e31775-&gt;d7e31789</title><path fill="none" stroke="#000" d="M440.706,-330.942C456.14,-323.079 477.09,-312.407 494.243,-303.669"/><polygon fill="#000" stroke="#000" points="496.001 -306.701 503.323 -299.043 492.823 -300.464 496.001 -306.701"/></g><g id="node48" class="node"><title>d7e31777</title><ellipse cx="294" cy="-234" fill="none" stroke="#000" rx="27" ry="18"/><text x="294" y="-229.4" font-family="Times New Roman,serif" font-size="14" text-anchor="middle">=</text></g><g id="edge65" class="edge"><title>d7e31776-&gt;d7e31777</title><path fill="none" stroke="#000" d="M316.739,-271.21C314.526,-267.588 312.136,-263.678 309.767,-259.801"/><polygon fill="#000" stroke="#000" points="312.569 -257.673 304.368 -250.966 306.596 -261.323 312.569 -257.673"/></g><g id="edge61" class="edge"><title>d7e31777-&gt;a2</title><path fill="none" stroke="#000" d="M291.003,-216.019C290.583,-213.495 290.142,-210.853 289.699,-208.195"/><polygon fill="#000" stroke="#000" points="293.111 -207.375 288.014 -198.087 286.206 -208.526 293.111 -207.375"/></g><g id="node52" class="node"><title>d7e31779</title><ellipse cx="368" cy="-180" fill="none" stroke="#000" rx="27" ry="18"/><text x="368" y="-175.4" font-family="Times New Roman,serif" font-size="14" text-anchor="middle">if</text></g><g id="edge63" class="edge"><title>d7e31777-&gt;d7e31779</title><path fill="none" stroke="#000" d="M312.292,-220.652C321.098,-214.226 331.821,-206.401 341.5,-199.338"/><polygon fill="#000" stroke="#000" points="343.647 -202.104 349.662 -193.382 339.521 -196.449 343.647 -202.104"/></g><g id="node54" class="node"><title>d7e31780</title><ellipse cx="289" cy="-126" fill="none" stroke="#000" rx="27" ry="18"/><text x="289" y="-121.4" font-family="Times New Roman,serif" font-size="14" text-anchor="middle">test</text></g><g id="edge55" class="edge"><title>d7e31779-&gt;d7e31780</title><path fill="none" stroke="#000" d="M348.876,-166.928C339.076,-160.229 326.97,-151.954 316.214,-144.602"/><polygon fill="#000" stroke="#000" points="318.178 -141.705 307.948 -138.952 314.228 -147.484 318.178 -141.705"/></g><g id="node62" class="node"><title>d7e31783</title><ellipse cx="368" cy="-126" fill="none" stroke="#000" rx="27" ry="18"/><text x="368" y="-121.4" font-family="Times New Roman,serif" font-size="14" text-anchor="middle">then</text></g><g id="edge57" class="edge"><title>d7e31779-&gt;d7e31783</title><path fill="none" stroke="#000" d="M368,-161.718C368,-159.343 368,-156.867 368,-154.375"/><polygon fill="#000" stroke="#000" points="371.5 -154.263 368 -144.263 364.5 -154.263 371.5 -154.263"/></g><g id="node67" class="node"><title>d7e31785</title><ellipse cx="440" cy="-126" fill="none" stroke="#000" rx="27" ry="18"/><text x="440" y="-121.4" font-family="Times New Roman,serif" font-size="14" text-anchor="middle">else</text></g><g id="edge59" class="edge"><title>d7e31779-&gt;d7e31785</title><path fill="none" stroke="#000" d="M386.169,-166.374C394.461,-160.154 404.443,-152.668 413.547,-145.84"/><polygon fill="#000" stroke="#000" points="415.687 -148.61 421.587 -139.81 411.487 -143.01 415.687 -148.61"/></g><g id="node56" class="node"><title>d7e31781</title><ellipse cx="283" cy="-72" fill="none" stroke="#000" rx="40.249" ry="18"/><text x="283" y="-67.4" font-family="Times New Roman,serif" font-size="14" text-anchor="middle">boolean</text></g><g id="edge45" class="edge"><title>d7e31780-&gt;d7e31781</title><path fill="none" stroke="#000" d="M287.002,-108.019C286.722,-105.495 286.428,-102.853 286.133,-100.195"/><polygon fill="#000" stroke="#000" points="289.593 -99.639 285.01 -90.087 282.635 -100.412 289.593 -99.639"/></g><g id="edge43" class="edge"><title>d7e31781-&gt;a3</title><path fill="none" stroke="#000" d="M283,-53.7181C283,-51.3429 283,-48.867 283,-46.3754"/><polygon fill="#000" stroke="#000" points="286.5 -46.263 283 -36.263 279.5 -46.263 286.5 -46.263"/></g><g id="node64" class="node"><title>d7e31784</title><ellipse cx="368" cy="-72" fill="none" stroke="#000" rx="27" ry="18"/><text x="368" y="-67.4" font-family="Times New Roman,serif" font-size="14" text-anchor="middle">31</text></g><g id="edge49" class="edge"><title>d7e31783-&gt;d7e31784</title><path fill="none" stroke="#000" d="M368,-107.718C368,-105.343 368,-102.867 368,-100.375"/><polygon fill="#000" stroke="#000" points="371.5 -100.263 368 -90.263 364.5 -100.263 371.5 -100.263"/></g><g id="node69" class="node"><title>d7e31786</title><ellipse cx="440" cy="-72" fill="none" stroke="#000" rx="27" ry="18"/><text x="440" y="-67.4" font-family="Times New Roman,serif" font-size="14" text-anchor="middle">32</text></g><g id="edge53" class="edge"><title>d7e31785-&gt;d7e31786</title><path fill="none" stroke="#000" d="M440,-107.718C440,-105.343 440,-102.867 440,-100.375"/><polygon fill="#000" stroke="#000" points="443.5 -100.263 440 -90.263 436.5 -100.263 443.5 -100.263"/></g><g id="edge69" class="edge"><title>d7e31787-&gt;c2</title><path fill="none" stroke="#000" d="M419,-269.718C419,-267.343 419,-264.867 419,-262.375"/><polygon fill="#000" stroke="#000" points="422.5 -262.263 419 -252.263 415.5 -262.263 422.5 -262.263"/></g><g id="node85" class="node"><title>d7e31790</title><ellipse cx="559" cy="-234" fill="none" stroke="#000" rx="41.764" ry="18"/><text x="559" y="-229.4" font-family="Times New Roman,serif" font-size="14" text-anchor="middle">concat()</text></g><g id="edge79" class="edge"><title>d7e31789-&gt;d7e31790</title><path fill="none" stroke="#000" d="M535.571,-271.21C537.764,-267.727 540.125,-263.978 542.473,-260.248"/><polygon fill="#000" stroke="#000" points="545.48 -262.042 547.847 -251.714 539.557 -258.312 545.48 -262.042"/></g><g id="edge75" class="edge"><title>d7e31790-&gt;c3</title><path fill="none" stroke="#000" d="M546.445,-216.617C543.99,-213.218 541.367,-209.584 538.76,-205.976"/><polygon fill="#000" stroke="#000" points="541.491 -203.779 532.799 -197.721 535.816 -207.877 541.491 -203.779"/></g><g id="edge77" class="edge"><title>d7e31790-&gt;c4</title><path fill="none" stroke="#000" d="M587.427,-220.652C600.631,-214.452 616.61,-206.948 631.228,-200.084"/><polygon fill="#000" stroke="#000" points="633.031 -203.104 640.595 -195.686 630.055 -196.768 633.031 -203.104"/></g></g></svg>