<svg xmlns="http://www.w3.org/2000/svg" xmlns:xlink="http://www.w3.org/1999/xlink" width="406pt" height="314pt" viewBox="0 0 406 314"><g id="graph1" class="graph" transform="scale(1 1) rotate(0) translate(4 310)"><title>g</title><polygon fill="#fff" stroke="#fff" points="-4 5 -4 -310 403 -310 403 5 -4 5"/><g id="node2" class="node"><title>T</title><ellipse cx="124" cy="-288" fill="none" stroke="#000" rx="53.838" ry="18"/><text x="124" y="-283.4" font-family="Times New Roman,serif" font-size="14" text-anchor="middle">xsl:template</text></g><g id="node4" class="node"><title>A</title><ellipse cx="124" cy="-234" fill="none" stroke="#000" rx="53.838" ry="18"/><text x="124" y="-229.4" font-family="Times New Roman,serif" font-size="14" text-anchor="middle">xsl:for-each</text></g><g id="edge22" class="edge"><title>T-&gt;A</title><path fill="none" stroke="#000" d="M117.596,-270.019C117.396,-267.495 117.282,-264.853 117.256,-262.195"/><polygon fill="#000" stroke="#000" points="120.758 -262.196 117.588 -252.087 113.761 -261.966 120.758 -262.196"/></g><g id="node6" class="node"><title>B</title><ellipse cx="68" cy="-180" fill="none" stroke="#000" rx="67.924" ry="18"/><text x="68" y="-175.4" font-family="Times New Roman,serif" font-size="14" text-anchor="middle">child::employee</text></g><g id="edge24" class="edge"><title>T-&gt;B</title><path fill="none" stroke="red" d="M161.277,-274.948C171.41,-269.492 181.183,-262.024 187,-252 195.031,-238.161 196.536,-228.848 187,-216 183.059,-210.69 155.62,-202.214 128.084,-194.82"/><polygon fill="red" stroke="red" points="128.941 -191.426 118.379 -192.257 127.154 -198.194 128.941 -191.426"/></g><g id="edge34" class="edge"><title>A-&gt;T</title><path fill="none" stroke="red" d="M130.412,-252.087C130.61,-254.614 130.721,-257.258 130.745,-259.916"/><polygon fill="red" stroke="red" points="127.244 -259.906 130.404 -270.019 134.24 -260.143 127.244 -259.906"/></g><g id="edge18" class="edge"><title>A-&gt;B</title><path fill="none" stroke="#000" d="M106.281,-216.914C102.276,-213.052 97.9444,-208.875 93.685,-204.768"/><polygon fill="#000" stroke="#000" points="95.809 -201.954 86.182 -197.532 90.951 -206.993 95.809 -201.954"/></g><g id="node8" class="node"><title>LRE</title><ellipse cx="181" cy="-180" fill="none" stroke="#000" rx="27" ry="18"/><text x="181" y="-175.4" font-family="Times New Roman,serif" font-size="14" text-anchor="middle">&lt;a&gt;</text></g><g id="edge20" class="edge"><title>A-&gt;LRE</title><path fill="none" stroke="#000" d="M136.285,-216.318C141.503,-210.955 147.709,-205.032 153.844,-199.553"/><polygon fill="#000" stroke="#000" points="156.229 -202.118 161.498 -192.926 151.647 -196.826 156.229 -202.118"/></g><g id="node14" class="node"><title>C</title><ellipse cx="118" cy="-18" fill="none" stroke="#000" rx="53.838" ry="18"/><text x="118" y="-13.4" font-family="Times New Roman,serif" font-size="14" text-anchor="middle">child::salary</text></g><g id="edge26" class="edge"><title>B-&gt;C</title><path fill="none" stroke="red" d="M73.5419,-162.044C82.2519,-133.824 99.2085,-78.8846 109.478,-45.6128"/><polygon fill="red" stroke="red" points="112.828 -46.624 112.433 -36.036 106.14 -44.559 112.828 -46.624"/></g><g id="edge32" class="edge"><title>LRE-&gt;A</title><path fill="none" stroke="red" d="M169.601,-196.767C165.328,-201.203 160.32,-206.071 155.198,-210.783"/><polygon fill="red" stroke="red" points="152.804 -208.228 147.685 -217.505 157.471 -213.445 152.804 -208.228"/></g><g id="node10" class="node"><title>d7e31896</title><ellipse cx="181" cy="-126" fill="none" stroke="#000" rx="53.164" ry="18"/><text x="181" y="-121.4" font-family="Times New Roman,serif" font-size="14" text-anchor="middle">xsl:value-of</text></g><g id="edge16" class="edge"><title>LRE-&gt;d7e31896</title><path fill="none" stroke="#000" d="M181,-161.718C181,-159.343 181,-156.867 181,-154.375"/><polygon fill="#000" stroke="#000" points="184.5 -154.263 181 -144.263 177.5 -154.263 184.5 -154.263"/></g><g id="node12" class="node"><title>path</title><ellipse cx="181" cy="-72" fill="none" stroke="#000" rx="27" ry="18"/><text x="181" y="-67.4" font-family="Times New Roman,serif" font-size="14" text-anchor="middle">path</text></g><g id="edge14" class="edge"><title>d7e31896-&gt;path</title><path fill="none" stroke="#000" d="M181,-107.718C181,-105.343 181,-102.867 181,-100.375"/><polygon fill="#000" stroke="#000" points="184.5 -100.263 181 -90.263 177.5 -100.263 184.5 -100.263"/></g><g id="edge10" class="edge"><title>path-&gt;C</title><path fill="none" stroke="#000" d="M164.117,-57.529C158.377,-52.6085 151.804,-46.9747 145.454,-41.5321"/><polygon fill="#000" stroke="#000" points="147.48 -38.659 137.61 -34.808 142.925 -43.974 147.48 -38.659"/></g><g id="node16" class="node"><title>text</title><ellipse cx="294" cy="-18" fill="none" stroke="#000" rx="103.977" ry="18"/><text x="294" y="-13.4" font-family="Times New Roman,serif" font-size="14" text-anchor="middle">descendant-or-self::text()</text></g><g id="edge12" class="edge"><title>path-&gt;text</title><path fill="none" stroke="#000" d="M200.881,-59.7466C212.798,-53.6135 228.417,-46.016 243.477,-38.9904"/><polygon fill="#000" stroke="#000" points="245.134 -42.08 252.743 -34.708 242.197 -35.726 245.134 -42.08"/></g><g id="edge28" class="edge"><title>C-&gt;text</title><path fill="none" stroke="red" d="M172.313,-18C174.786,-18 177.259,-18 179.732,-18"/><polygon fill="red" stroke="red" points="179.9 -21.5 189.9 -18 179.9 -14.5 179.9 -21.5"/></g><g id="edge30" class="edge"><title>text-&gt;path</title><path fill="none" stroke="red" d="M263.843,-35.4507C248.516,-43.0853 229.932,-51.8892 214.199,-58.9431"/><polygon fill="red" stroke="red" points="212.559 -55.841 204.826 -63.083 215.388 -62.244 212.559 -55.841"/></g></g></svg>