<svg xmlns="http://www.w3.org/2000/svg" xmlns:xlink="http://www.w3.org/1999/xlink" width="236" height="152pt" viewBox="0 0 177 152"><g id="graph1" class="graph" transform="scale(1 1) rotate(0) translate(4 148)"><title>g</title><polygon fill="#fff" stroke="#fff" points="-4 5 -4 -148 174 -148 174 5 -4 5"/><g id="node2" class="node"><title>d7e32200</title><ellipse cx="101" cy="-126" fill="none" stroke="#000" rx="53.838" ry="18"/><text x="101" y="-121.4" font-family="Times New Roman,serif" font-size="14" text-anchor="middle">xsl:for-each</text></g><g id="node4" class="node"><title>d7e32201</title><ellipse cx="64" cy="-72" fill="none" stroke="#000" rx="27" ry="18"/><text x="64" y="-67.4" font-family="Times New Roman,serif" font-size="14" text-anchor="middle">sort</text></g><g id="edge11" class="edge"><title>d7e32200-&gt;d7e32201</title><path fill="none" stroke="#000" d="M88.8848,-108.318C86.3505,-104.62 83.6339,-100.655 80.9605,-96.7532"/><polygon fill="#000" stroke="#000" points="83.804 -94.711 75.264 -88.44 78.03 -98.668 83.804 -94.711"/></g><g id="node12" class="node"><title>d7e32204</title><ellipse cx="139" cy="-72" fill="none" stroke="#000" rx="30.187" ry="18"/><text x="139" y="-67.4" font-family="Times New Roman,serif" font-size="14" text-anchor="middle">OUT</text></g><g id="edge13" class="edge"><title>d7e32200-&gt;d7e32204</title><path fill="none" stroke="#000" d="M113.443,-108.318C115.926,-104.789 118.581,-101.017 121.204,-97.2889"/><polygon fill="#000" stroke="#000" points="124.282 -98.996 127.175 -88.804 118.558 -94.968 124.282 -98.996"/></g><g id="node6" class="node"><title>d7e32202</title><ellipse cx="27" cy="-18" fill="none" stroke="#000" rx="27" ry="18"/><text x="27" y="-13.4" font-family="Times New Roman,serif" font-size="14" text-anchor="middle">IN</text></g><g id="edge6" class="edge"><title>d7e32201-&gt;d7e32202</title><path fill="none" stroke="#000" d="M52.6977,-55.5048C49.9722,-51.5269 46.9997,-47.1887 44.0749,-42.9202"/><polygon fill="#000" stroke="#000" points="46.773 -40.665 38.233 -34.394 40.998 -44.622 46.773 -40.665"/></g><g id="node8" class="node"><title>d7e32203</title><ellipse cx="101" cy="-18" fill="none" stroke="#000" rx="29.016" ry="18"/><text x="101" y="-13.4" font-family="Times New Roman,serif" font-size="14" text-anchor="middle">KEY</text></g><g id="edge8" class="edge"><title>d7e32201-&gt;d7e32203</title><path fill="none" stroke="#000" d="M75.3023,-55.5048C77.9774,-51.6006 80.8903,-47.3492 83.7625,-43.1574"/><polygon fill="#000" stroke="#000" points="86.746 -44.995 89.512 -34.767 80.972 -41.038 86.746 -44.995"/></g></g></svg>