<svg xmlns="http://www.w3.org/2000/svg" width="682pt" height="602pt" viewBox="-1 -1 681 601"><g id="graph0" class="graph" style="font-family:Times-Roman;font-size:14"><title>N107A2</title><g id="graph2" class="cluster"><title>clusterN10565</title><polygon style="fill:none;stroke:#000" points="13 578 667 578 667 12 13 12 13 578"/></g><g id="node2" class="node"><title>file:///share/projects/w3c/WWW/XML/Group/xsl-query-specs/data-model/build/xml#idD1</title><polygon style="fill:#ffd4ea;stroke:#000" points="82 308 28 308 28 330 82 330 82 308"/><text style="font-size:8" x="55" y="322" text-anchor="middle">D1</text></g><g id="node4" class="node"><title>file:///share/projects/w3c/WWW/XML/Group/xsl-query-specs/data-model/build/xml#N10001</title><polygon style="fill:#e5fdfe;stroke:#000" points="202 428 126 428 126 450 202 450 202 428"/><text style="font-size:8" x="164" y="442" text-anchor="middle">P1: xml-stylesheet</text></g><g id="edge3" class="edge"><title>file:///share/projects/w3c/WWW/XML/Group/xsl-query-specs/data-model/build/xml#idD1-&gt;file:///share/projects/w3c/WWW/XML/Group/xsl-query-specs/data-model/build/xml#N10001</title><path style="fill:none;stroke:#000" d="M79,330C83,333 86,336 89,339 116,368 99,390 125,419 126,420 127,421 128,422"/><polygon style="fill:#000;stroke:#000" points="131 420 137 428 127 425 131 420"/></g><g id="node6" class="node"><title>file:///share/projects/w3c/WWW/XML/Group/xsl-query-specs/data-model/build/xml#N10002</title><polygon style="fill:#96e3d1;stroke:#000" points="191 388 137 388 137 410 191 410 191 388"/><text style="font-size:8" x="164" y="402" text-anchor="middle">E1: catalog</text></g><g id="edge5" class="edge"><title>file:///share/projects/w3c/WWW/XML/Group/xsl-query-specs/data-model/build/xml#idD1-&gt;file:///share/projects/w3c/WWW/XML/Group/xsl-query-specs/data-model/build/xml#N10002</title><path style="fill:none;stroke:#000" d="M75,330C80,333 85,336 89,339 108,353 129,369 144,381"/><polygon style="fill:#000;stroke:#000" points="147 379 152 388 142 384 147 379"/></g><g id="node8" class="node"><title>file:///share/projects/w3c/WWW/XML/Group/xsl-query-specs/data-model/build/xml#N10008</title><polygon style="fill:#e7e6ff;stroke:#000" points="335 529 239 529 239 551 335 551 335 529"/><text style="font-size:8" x="287" y="543" text-anchor="middle">A1: xsi:schemaLocation</text></g><g id="edge7" class="edge"><title>file:///share/projects/w3c/WWW/XML/Group/xsl-query-specs/data-model/build/xml#N10002-&gt;file:///share/projects/w3c/WWW/XML/Group/xsl-query-specs/data-model/build/xml#N10008</title><path style="fill:none;stroke:#000" d="M191,409C196,412 200,415 203,419 235,454 207,485 239,520 240,521 241,522 242,523"/><polygon style="fill:#000;stroke:#000" points="245 521 251 529 241 526 245 521"/></g><g id="node10" class="node"><title>file:///share/projects/w3c/WWW/XML/Group/xsl-query-specs/data-model/build/xml#N10009</title><polygon style="fill:#e7e6ff;stroke:#000" points="317 489 257 489 257 511 317 511 317 489"/><text style="font-size:8" x="287" y="503" text-anchor="middle">A2: xml:lang</text></g><g id="edge9" class="edge"><title>file:///share/projects/w3c/WWW/XML/Group/xsl-query-specs/data-model/build/xml#N10002-&gt;file:///share/projects/w3c/WWW/XML/Group/xsl-query-specs/data-model/build/xml#N10009</title><path style="fill:none;stroke:#000" d="M191,410C195,413 199,416 203,419 226,440 216,459 239,480 242,482 245,484 248,486"/><polygon style="fill:#000;stroke:#000" points="250 483 257 491 247 489 250 483"/></g><g id="node12" class="node"><title>file:///share/projects/w3c/WWW/XML/Group/xsl-query-specs/data-model/build/xml#N1000A</title><polygon style="fill:#e7e6ff;stroke:#000" points="314 449 260 449 260 471 314 471 314 449"/><text style="font-size:8" x="287" y="463" text-anchor="middle">A3: version</text></g><g id="edge11" class="edge"><title>file:///share/projects/w3c/WWW/XML/Group/xsl-query-specs/data-model/build/xml#N10002-&gt;file:///share/projects/w3c/WWW/XML/Group/xsl-query-specs/data-model/build/xml#N1000A</title><path style="fill:none;stroke:#000" d="M187,410C192,413 198,416 203,419 220,427 223,431 239,440 243,442 246,443 250,445"/><polygon style="fill:#000;stroke:#000" points="251 442 259 449 248 448 251 442"/></g><g id="node14" class="node"><title>file:///share/projects/w3c/WWW/XML/Group/xsl-query-specs/data-model/build/xml#N1000B</title><ellipse cx="287" cy="419" rx="27" ry="12" style="fill:#e1e1e1;stroke:#000"/><text style="font-size:8" x="287" y="422" text-anchor="middle">C1</text></g><g id="edge13" class="edge"><title>file:///share/projects/w3c/WWW/XML/Group/xsl-query-specs/data-model/build/xml#N10002-&gt;file:///share/projects/w3c/WWW/XML/Group/xsl-query-specs/data-model/build/xml#N1000B</title><path style="fill:none;stroke:#000" d="M191,403C209,406 232,410 252,413"/><polygon style="fill:#000;stroke:#000" points="253 410 262 415 252 416 253 410"/></g><g id="node16" class="node"><title>file:///share/projects/w3c/WWW/XML/Group/xsl-query-specs/data-model/build/xml#N1000C</title><polygon style="fill:#96e3d1;stroke:#000" points="314 367 260 367 260 389 314 389 314 367"/><text style="font-size:8" x="287" y="381" text-anchor="middle">E2: tshirt</text></g><g id="edge15" class="edge"><title>file:///share/projects/w3c/WWW/XML/Group/xsl-query-specs/data-model/build/xml#N10002-&gt;file:///share/projects/w3c/WWW/XML/Group/xsl-query-specs/data-model/build/xml#N1000C</title><path style="fill:none;stroke:#000" d="M191,394C209,391 231,388 250,385"/><polygon style="fill:#000;stroke:#000" points="250 382 260 383 251 388 250 382"/></g><g id="node18" class="node"><title>file:///share/projects/w3c/WWW/XML/Group/xsl-query-specs/data-model/build/xml#N10018</title><polygon style="fill:#96e3d1;stroke:#000" points="314 168 260 168 260 190 314 190 314 168"/><text style="font-size:8" x="287" y="182" text-anchor="middle">E7: album</text></g><g id="edge17" class="edge"><title>file:///share/projects/w3c/WWW/XML/Group/xsl-query-specs/data-model/build/xml#N10002-&gt;file:///share/projects/w3c/WWW/XML/Group/xsl-query-specs/data-model/build/xml#N10018</title><path style="fill:none;stroke:#000" d="M170,388C190,353 251,244 276,199"/><polygon style="fill:#000;stroke:#000" points="273 197 281 190 279 200 273 197"/></g><g id="node20" class="node"><title>file:///share/projects/w3c/WWW/XML/Group/xsl-query-specs/data-model/build/xml#N1000D</title><polygon style="fill:#e7e6ff;stroke:#000" points="431 548 377 548 377 570 431 570 431 548"/><text style="font-size:8" x="404" y="562" text-anchor="middle">A4: code</text></g><g id="edge19" class="edge"><title>file:///share/projects/w3c/WWW/XML/Group/xsl-query-specs/data-model/build/xml#N1000C-&gt;file:///share/projects/w3c/WWW/XML/Group/xsl-query-specs/data-model/build/xml#N1000D</title><path style="fill:none;stroke:#000" d="M314,384C322,387 330,392 335,398 378,446 333,487 371,539 372,540 372,541 373,541"/><polygon style="fill:#000;stroke:#000" points="376 539 381 548 371 544 376 539"/></g><g id="node22" class="node"><title>file:///share/projects/w3c/WWW/XML/Group/xsl-query-specs/data-model/build/xml#N1000E</title><polygon style="fill:#e7e6ff;stroke:#000" points="431 508 377 508 377 530 431 530 431 508"/><text style="font-size:8" x="404" y="522" text-anchor="middle">A5: label</text></g><g id="edge21" class="edge"><title>file:///share/projects/w3c/WWW/XML/Group/xsl-query-specs/data-model/build/xml#N1000C-&gt;file:///share/projects/w3c/WWW/XML/Group/xsl-query-specs/data-model/build/xml#N1000E</title><path style="fill:none;stroke:#000" d="M314,385C322,388 330,392 335,398 368,432 341,462 371,499 372,500 372,501 373,501"/><polygon style="fill:#000;stroke:#000" points="376 499 381 508 371 504 376 499"/></g><g id="node24" class="node"><title>file:///share/projects/w3c/WWW/XML/Group/xsl-query-specs/data-model/build/xml#N1000F</title><polygon style="fill:#e7e6ff;stroke:#000" points="435 468 373 468 373 490 435 490 435 468"/><text style="font-size:8" x="404" y="482" text-anchor="middle">A6: xlink:href</text></g><g id="edge23" class="edge"><title>file:///share/projects/w3c/WWW/XML/Group/xsl-query-specs/data-model/build/xml#N1000C-&gt;file:///share/projects/w3c/WWW/XML/Group/xsl-query-specs/data-model/build/xml#N1000F</title><path style="fill:none;stroke:#000" d="M314,385C322,388 329,393 335,398 359,418 349,436 371,459 372,460 373,461 375,462"/><polygon style="fill:#000;stroke:#000" points="377 459 383 468 373 465 377 459"/></g><g id="node26" class="node"><title>file:///share/projects/w3c/WWW/XML/Group/xsl-query-specs/data-model/build/xml#N10010</title><polygon style="fill:#e7e6ff;stroke:#000" points="431 428 377 428 377 450 431 450 431 428"/><text style="font-size:8" x="404" y="442" text-anchor="middle">A7: sizes</text></g><g id="edge25" class="edge"><title>file:///share/projects/w3c/WWW/XML/Group/xsl-query-specs/data-model/build/xml#N1000C-&gt;file:///share/projects/w3c/WWW/XML/Group/xsl-query-specs/data-model/build/xml#N10010</title><path style="fill:none;stroke:#000" d="M314,388C321,391 328,394 335,398 339,401 359,413 377,423"/><polygon style="fill:#000;stroke:#000" points="379 420 386 428 376 426 379 420"/></g><g id="node28" class="node"><title>file:///share/projects/w3c/WWW/XML/Group/xsl-query-specs/data-model/build/xml#N10011</title><polygon style="fill:#96e3d1;stroke:#000" points="431 388 377 388 377 410 431 410 431 388"/><text style="font-size:8" x="404" y="402" text-anchor="middle">E3: title</text></g><g id="edge27" class="edge"><title>file:///share/projects/w3c/WWW/XML/Group/xsl-query-specs/data-model/build/xml#N1000C-&gt;file:///share/projects/w3c/WWW/XML/Group/xsl-query-specs/data-model/build/xml#N10011</title><path style="fill:none;stroke:#000" d="M314,383C330,385 350,389 367,392"/><polygon style="fill:#000;stroke:#000" points="368 389 377 394 367 395 368 389"/></g><g id="node30" class="node"><title>file:///share/projects/w3c/WWW/XML/Group/xsl-query-specs/data-model/build/xml#N10013</title><polygon style="fill:#96e3d1;stroke:#000" points="437 348 371 348 371 370 437 370 437 348"/><text style="font-size:8" x="404" y="362" text-anchor="middle">E4: description</text></g><g id="edge29" class="edge"><title>file:///share/projects/w3c/WWW/XML/Group/xsl-query-specs/data-model/build/xml#N1000C-&gt;file:///share/projects/w3c/WWW/XML/Group/xsl-query-specs/data-model/build/xml#N10013</title><path style="fill:none;stroke:#000" d="M314,374C328,372 345,368 361,366"/><polygon style="fill:#000;stroke:#000" points="361 363 371 364 362 369 361 363"/></g><g id="node32" class="node"><title>file:///share/projects/w3c/WWW/XML/Group/xsl-query-specs/data-model/build/xml#N10016</title><polygon style="fill:#96e3d1;stroke:#000" points="431 308 377 308 377 330 431 330 431 308"/><text style="font-size:8" x="404" y="322" text-anchor="middle">E6: price</text></g><g id="edge31" class="edge"><title>file:///share/projects/w3c/WWW/XML/Group/xsl-query-specs/data-model/build/xml#N1000C-&gt;file:///share/projects/w3c/WWW/XML/Group/xsl-query-specs/data-model/build/xml#N10016</title><path style="fill:none;stroke:#000" d="M309,367C327,358 353,345 373,335"/><polygon style="fill:#000;stroke:#000" points="372 332 382 330 375 338 372 332"/></g><g id="node42" class="node"><title>file:///share/projects/w3c/WWW/XML/Group/xsl-query-specs/data-model/build/xml#N10019</title><polygon style="fill:#e7e6ff;stroke:#000" points="431 268 377 268 377 290 431 290 431 268"/><text style="font-size:8" x="404" y="282" text-anchor="middle">A8: code</text></g><g id="edge41" class="edge"><title>file:///share/projects/w3c/WWW/XML/Group/xsl-query-specs/data-model/build/xml#N10018-&gt;file:///share/projects/w3c/WWW/XML/Group/xsl-query-specs/data-model/build/xml#N10019</title><path style="fill:none;stroke:#000" d="M297,190C313,207 343,237 371,259 372,260 374,261 375,262"/><polygon style="fill:#000;stroke:#000" points="378 260 384 268 374 265 378 260"/></g><g id="node44" class="node"><title>file:///share/projects/w3c/WWW/XML/Group/xsl-query-specs/data-model/build/xml#N1001A</title><polygon style="fill:#e7e6ff;stroke:#000" points="431 228 377 228 377 250 431 250 431 228"/><text style="font-size:8" x="404" y="242" text-anchor="middle">A9: label</text></g><g id="edge43" class="edge"><title>file:///share/projects/w3c/WWW/XML/Group/xsl-query-specs/data-model/build/xml#N10018-&gt;file:///share/projects/w3c/WWW/XML/Group/xsl-query-specs/data-model/build/xml#N1001A</title><path style="fill:none;stroke:#000" d="M308,190C326,200 353,213 374,224"/><polygon style="fill:#000;stroke:#000" points="375 221 383 228 372 227 375 221"/></g><g id="node46" class="node"><title>file:///share/projects/w3c/WWW/XML/Group/xsl-query-specs/data-model/build/xml#N1001B</title><polygon style="fill:#e7e6ff;stroke:#000" points="434 188 374 188 374 210 434 210 434 188"/><text style="font-size:8" x="404" y="202" text-anchor="middle">A10: formats</text></g><g id="edge45" class="edge"><title>file:///share/projects/w3c/WWW/XML/Group/xsl-query-specs/data-model/build/xml#N10018-&gt;file:///share/projects/w3c/WWW/XML/Group/xsl-query-specs/data-model/build/xml#N1001B</title><path style="fill:none;stroke:#000" d="M314,184C329,186 347,190 364,192"/><polygon style="fill:#000;stroke:#000" points="365 189 374 194 364 195 365 189"/></g><g id="node48" class="node"><title>file:///share/projects/w3c/WWW/XML/Group/xsl-query-specs/data-model/build/xml#N1001C</title><polygon style="fill:#96e3d1;stroke:#000" points="431 148 377 148 377 170 431 170 431 148"/><text style="font-size:8" x="404" y="162" text-anchor="middle">E8: title</text></g><g id="edge47" class="edge"><title>file:///share/projects/w3c/WWW/XML/Group/xsl-query-specs/data-model/build/xml#N10018-&gt;file:///share/projects/w3c/WWW/XML/Group/xsl-query-specs/data-model/build/xml#N1001C</title><path style="fill:none;stroke:#000" d="M314,174C330,172 350,168 367,165"/><polygon style="fill:#000;stroke:#000" points="367 162 377 163 368 168 367 162"/></g><g id="node50" class="node"><title>file:///share/projects/w3c/WWW/XML/Group/xsl-query-specs/data-model/build/xml#N1001E</title><polygon style="fill:#96e3d1;stroke:#000" points="437 108 371 108 371 130 437 130 437 108"/><text style="font-size:8" x="404" y="122" text-anchor="middle">E9: description</text></g><g id="edge49" class="edge"><title>file:///share/projects/w3c/WWW/XML/Group/xsl-query-specs/data-model/build/xml#N10018-&gt;file:///share/projects/w3c/WWW/XML/Group/xsl-query-specs/data-model/build/xml#N1001E</title><path style="fill:none;stroke:#000" d="M308,168C326,158 353,145 374,134"/><polygon style="fill:#000;stroke:#000" points="372 131 383 130 375 137 372 131"/></g><g id="node52" class="node"><title>file:///share/projects/w3c/WWW/XML/Group/xsl-query-specs/data-model/build/xml#N10020</title><polygon style="fill:#96e3d1;stroke:#000" points="431 68 377 68 377 90 431 90 431 68"/><text style="font-size:8" x="404" y="82" text-anchor="middle">E10: price</text></g><g id="edge51" class="edge"><title>file:///share/projects/w3c/WWW/XML/Group/xsl-query-specs/data-model/build/xml#N10018-&gt;file:///share/projects/w3c/WWW/XML/Group/xsl-query-specs/data-model/build/xml#N10020</title><path style="fill:none;stroke:#000" d="M297,168C313,152 343,121 371,99 373,98 374,97 376,95"/><polygon style="fill:#000;stroke:#000" points="375 92 385 90 378 98 375 92"/></g><g id="node54" class="node"><title>file:///share/projects/w3c/WWW/XML/Group/xsl-query-specs/data-model/build/xml#N10023</title><polygon style="fill:#96e3d1;stroke:#000" points="431 28 377 28 377 50 431 50 431 28"/><text style="font-size:8" x="404" y="42" text-anchor="middle">E11: artist</text></g><g id="edge53" class="edge"><title>file:///share/projects/w3c/WWW/XML/Group/xsl-query-specs/data-model/build/xml#N10018-&gt;file:///share/projects/w3c/WWW/XML/Group/xsl-query-specs/data-model/build/xml#N10023</title><path style="fill:none;stroke:#000" d="M293,168C305,145 335,93 371,59 372,58 373,57 375,56"/><polygon style="fill:#000;stroke:#000" points="373 53 383 50 377 59 373 53"/></g><g id="node34" class="node"><title>file:///share/projects/w3c/WWW/XML/Group/xsl-query-specs/data-model/build/xml#N10012</title><ellipse cx="511" cy="400" rx="38" ry="12" style="fill:#ffffc2;stroke:#000"/><text style="font-size:8" x="511" y="403" text-anchor="middle">T1: &apos;Staind: B...&apos;</text></g><g id="edge33" class="edge"><title>file:///share/projects/w3c/WWW/XML/Group/xsl-query-specs/data-model/build/xml#N10011-&gt;file:///share/projects/w3c/WWW/XML/Group/xsl-query-specs/data-model/build/xml#N10012</title><path style="fill:none;stroke:#000" d="M431,399C441,399 452,400 463,400"/><polygon style="fill:#000;stroke:#000" points="463 396 473 400 463 403 463 396"/></g><g id="node36" class="node"><title>file:///share/projects/w3c/WWW/XML/Group/xsl-query-specs/data-model/build/xml#N10014</title><polygon style="fill:#96e3d1;stroke:#000" points="538 348 484 348 484 370 538 370 538 348"/><text style="font-size:8" x="511" y="362" text-anchor="middle">E5: html:p</text></g><g id="edge35" class="edge"><title>file:///share/projects/w3c/WWW/XML/Group/xsl-query-specs/data-model/build/xml#N10013-&gt;file:///share/projects/w3c/WWW/XML/Group/xsl-query-specs/data-model/build/xml#N10014</title><path style="fill:none;stroke:#000" d="M437,359C449,359 462,359 474,359"/><polygon style="fill:#000;stroke:#000" points="474 355 484 359 474 362 474 355"/></g><g id="node40" class="node"><title>file:///share/projects/w3c/WWW/XML/Group/xsl-query-specs/data-model/build/xml#N10017</title><ellipse cx="511" cy="318" rx="29" ry="12" style="fill:#ffffc2;stroke:#000"/><text style="font-size:8" x="511" y="321" text-anchor="middle">T3: &apos;25.00&apos;</text></g><g id="edge39" class="edge"><title>file:///share/projects/w3c/WWW/XML/Group/xsl-query-specs/data-model/build/xml#N10016-&gt;file:///share/projects/w3c/WWW/XML/Group/xsl-query-specs/data-model/build/xml#N10017</title><path style="fill:none;stroke:#000" d="M431,319C443,319 458,318 471,318"/><polygon style="fill:#000;stroke:#000" points="471 314 481 318 471 321 471 314"/></g><g id="node38" class="node"><title>file:///share/projects/w3c/WWW/XML/Group/xsl-query-specs/data-model/build/xml#N10015</title><ellipse cx="622" cy="359" rx="36" ry="12" style="fill:#ffffc2;stroke:#000"/><text style="font-size:8" x="622" y="362" text-anchor="middle">T2: &apos;\n Ly...&apos;</text></g><g id="edge37" class="edge"><title>file:///share/projects/w3c/WWW/XML/Group/xsl-query-specs/data-model/build/xml#N10014-&gt;file:///share/projects/w3c/WWW/XML/Group/xsl-query-specs/data-model/build/xml#N10015</title><path style="fill:none;stroke:#000" d="M538,359C549,359 562,359 575,359"/><polygon style="fill:#000;stroke:#000" points="575 355 585 359 575 362 575 355"/></g><g id="node56" class="node"><title>file:///share/projects/w3c/WWW/XML/Group/xsl-query-specs/data-model/build/xml#N1001D</title><ellipse cx="511" cy="204" rx="37" ry="12" style="fill:#ffffc2;stroke:#000"/><text style="font-size:8" x="511" y="207" text-anchor="middle">T4: &apos;It&apos;s Been...&apos;</text></g><g id="edge55" class="edge"><title>file:///share/projects/w3c/WWW/XML/Group/xsl-query-specs/data-model/build/xml#N1001C-&gt;file:///share/projects/w3c/WWW/XML/Group/xsl-query-specs/data-model/build/xml#N1001D</title><path style="fill:none;stroke:#000" d="M430,170C445,176 463,184 479,190"/><polygon style="fill:#000;stroke:#000" points="480 187 488 194 477 193 480 187"/></g><g id="node58" class="node"><title>file:///share/projects/w3c/WWW/XML/Group/xsl-query-specs/data-model/build/xml#N1001F</title><polygon style="fill:#e7e6ff;stroke:#000" points="539 152 483 152 483 174 539 174 539 152"/><text style="font-size:8" x="511" y="166" text-anchor="middle">A11: xsi:nil</text></g><g id="edge57" class="edge"><title>file:///share/projects/w3c/WWW/XML/Group/xsl-query-specs/data-model/build/xml#N1001E-&gt;file:///share/projects/w3c/WWW/XML/Group/xsl-query-specs/data-model/build/xml#N1001F</title><path style="fill:none;stroke:#000" d="M431,130C444,136 460,142 475,148"/><polygon style="fill:#000;stroke:#000" points="476 145 484 152 473 151 476 145"/></g><g id="node60" class="node"><title>file:///share/projects/w3c/WWW/XML/Group/xsl-query-specs/data-model/build/xml#N10021</title><polygon style="fill:#e7e6ff;stroke:#000" points="543 112 479 112 479 134 543 134 543 112"/><text style="font-size:8" x="511" y="126" text-anchor="middle">A12: currency</text></g><g id="edge59" class="edge"><title>file:///share/projects/w3c/WWW/XML/Group/xsl-query-specs/data-model/build/xml#N10020-&gt;file:///share/projects/w3c/WWW/XML/Group/xsl-query-specs/data-model/build/xml#N10021</title><path style="fill:none;stroke:#000" d="M431,90C444,96 460,102 475,108"/><polygon style="fill:#000;stroke:#000" points="476 105 484 112 473 111 476 105"/></g><g id="node62" class="node"><title>file:///share/projects/w3c/WWW/XML/Group/xsl-query-specs/data-model/build/xml#N10022</title><ellipse cx="511" cy="82" rx="29" ry="12" style="fill:#ffffc2;stroke:#000"/><text style="font-size:8" x="511" y="85" text-anchor="middle">T5: &apos;10.99&apos;</text></g><g id="edge61" class="edge"><title>file:///share/projects/w3c/WWW/XML/Group/xsl-query-specs/data-model/build/xml#N10020-&gt;file:///share/projects/w3c/WWW/XML/Group/xsl-query-specs/data-model/build/xml#N10022</title><path style="fill:none;stroke:#000" d="M431,80C443,80 458,81 471,81"/><polygon style="fill:#000;stroke:#000" points="471 77 481 81 471 84 471 77"/></g><g id="node64" class="node"><title>file:///share/projects/w3c/WWW/XML/Group/xsl-query-specs/data-model/build/xml#N10024</title><ellipse cx="511" cy="40" rx="32" ry="12" style="fill:#ffffc2;stroke:#000"/><text style="font-size:8" x="511" y="43" text-anchor="middle">T6: &apos; Staind &apos;</text></g><g id="edge63" class="edge"><title>file:///share/projects/w3c/WWW/XML/Group/xsl-query-specs/data-model/build/xml#N10023-&gt;file:///share/projects/w3c/WWW/XML/Group/xsl-query-specs/data-model/build/xml#N10024</title><path style="fill:none;stroke:#000" d="M431,39C442,39 455,40 468,40"/><polygon style="fill:#000;stroke:#000" points="468 36 478 40 468 43 468 36"/></g><g id="node65" class="node"><title>file:///share/projects/w3c/WWW/XML/Group/xsl-query-specs/data-model/build/xml#N10003</title><polygon style="fill:#e7e6ff;stroke:#000" points="86 359 55 349 24 359 36 375 74 375 86 359"/><text style="font-size:8" x="55" y="366" text-anchor="middle">N1: xml</text></g><g id="node66" class="node"><title>file:///share/projects/w3c/WWW/XML/Group/xsl-query-specs/data-model/build/xml#N10004</title><polygon style="fill:#e7e6ff;stroke:#000" points="82 407 55 397 28 407 39 423 71 423 82 407"/><text style="font-size:8" x="55" y="414" text-anchor="middle">N2:</text></g><g id="node67" class="node"><title>file:///share/projects/w3c/WWW/XML/Group/xsl-query-specs/data-model/build/xml#N10005</title><polygon style="fill:#e7e6ff;stroke:#000" points="87 455 55 445 23 455 35 471 75 471 87 455"/><text style="font-size:8" x="55" y="462" text-anchor="middle">N3: html</text></g><g id="node68" class="node"><title>file:///share/projects/w3c/WWW/XML/Group/xsl-query-specs/data-model/build/xml#N10006</title><polygon style="fill:#e7e6ff;stroke:#000" points="89 503 55 493 21 503 34 519 76 519 89 503"/><text style="font-size:8" x="55" y="510" text-anchor="middle">N4: xlink</text></g><g id="node69" class="node"><title>file:///share/projects/w3c/WWW/XML/Group/xsl-query-specs/data-model/build/xml#N10007</title><polygon style="fill:#e7e6ff;stroke:#000" points="84 551 55 541 26 551 37 567 73 567 84 551"/><text style="font-size:8" x="55" y="558" text-anchor="middle">N5: xsi</text></g></g></svg>